<?xml version="1.0" encoding="UTF-8" standalone="no"?>
<!-- Created with Inkscape (http://www.inkscape.org/) -->

<svg
   version="1.1"
   id="svg1"
   width="2000"
   height="2000"
   viewBox="0 0 2000 2000"
   xmlns="http://www.w3.org/2000/svg"
   xmlns:svg="http://www.w3.org/2000/svg">
  <defs
     id="defs1" />
  <g
     id="g1">
    <g
       id="g2"
       style="fill:#3a7bd5;fill-opacity:1">
      <path
         style="fill-opacity:1;fill:#3a7bd5"
         d="m 770.40499,1884.75 -1.90499,-2.25 2.25,1.905 c 2.11444,1.7902 2.70524,2.595 1.90499,2.595 -0.18976,0 -1.20226,-1.0125 -2.25,-2.25 z M 1257.5,1878 c 2.1482,-2.2 4.1309,-4 4.4059,-4 0.275,0 -1.2577,1.8 -3.4059,4 -2.1482,2.2 -4.1309,4 -4.4059,4 -0.275,0 1.2577,-1.8 3.4059,-4 z m 16.4582,-16.25 c 4.144,-4.4152 5.0418,-5.2091 5.0418,-4.4582 0,0.1605 -2.1375,2.298 -4.75,4.75 l -4.75,4.4582 z m -532.08576,-4.5 c -1.24387,-1.5861 -1.2085,-1.6214 0.37756,-0.3776 1.66575,1.3064 2.19548,2.1276 1.37244,2.1276 -0.20765,0 -0.99515,-0.7875 -1.75,-1.75 z M 1341,1857.6224 c 0,-0.2076 0.7875,-0.9951 1.75,-1.75 1.5861,-1.2438 1.6214,-1.2085 0.3776,0.3776 -1.3064,1.6657 -2.1276,2.1955 -2.1276,1.3724 z M 676.40499,1852.75 674.5,1850.5 l 2.25,1.905 c 2.11444,1.7902 2.70524,2.595 1.90499,2.595 -0.18976,0 -1.20226,-1.0125 -2.25,-2.25 z M 1291,1843.6224 c 0,-0.2076 0.7875,-0.9951 1.75,-1.75 1.5861,-1.2438 1.6214,-1.2085 0.3776,0.3776 -1.3064,1.6657 -2.1276,2.1955 -2.1276,1.3724 z M 726.40499,1840.75 724.5,1838.5 l 2.25,1.905 c 2.11444,1.7902 2.70524,2.595 1.90499,2.595 -0.18976,0 -1.20226,-1.0125 -2.25,-2.25 z M 1363.5,1836 c 2.7086,-2.75 5.1498,-5 5.4248,-5 0.275,0 -1.7162,2.25 -4.4248,5 -2.7086,2.75 -5.1498,5 -5.4248,5 -0.275,0 1.7162,-2.25 4.4248,-5 z m -710.02682,-5.25 -6.97318,-7.25 7.25,6.9732 c 3.9875,3.8352 7.25,7.0977 7.25,7.25 0,0.7335 -1.05013,-0.2394 -7.52682,-6.9732 z M 1371.5,1828 c 0.9955,-1.1 2.035,-2 2.31,-2 0.275,0 -0.3145,0.9 -1.31,2 -0.9955,1.1 -2.035,2 -2.31,2 -0.275,0 0.3145,-0.9 1.31,-2 z m 71.5,0.6224 c 0,-0.2076 0.7875,-0.9951 1.75,-1.75 1.5861,-1.2438 1.6214,-1.2085 0.3776,0.3776 -1.3064,1.6657 -2.1276,2.1955 -2.1276,1.3724 z M 568.40499,1820.75 566.5,1818.5 l 2.25,1.905 c 2.11444,1.7902 2.70524,2.595 1.90499,2.595 -0.18976,0 -1.20226,-1.0125 -2.25,-2.25 z M 1385,1813.6224 c 0,-0.2076 0.7875,-0.9951 1.75,-1.75 1.5861,-1.2438 1.6214,-1.2085 0.3776,0.3776 -1.3064,1.6657 -2.1276,2.1955 -2.1276,1.3724 z M 1470.5,1802 c 4.9271,-4.95 9.1833,-9 9.4583,-9 0.275,0 -3.5312,4.05 -8.4583,9 -4.9271,4.95 -9.1833,9 -9.4583,9 -0.275,0 3.5312,-4.05 8.4583,-9 z m -640.62756,6.25 c -1.24387,-1.5861 -1.2085,-1.6214 0.37756,-0.3776 0.9625,0.7549 1.75,1.5424 1.75,1.75 0,0.8231 -0.82119,0.2933 -2.12756,-1.3724 z m -301,-27 c -1.24387,-1.5861 -1.2085,-1.6214 0.37756,-0.3776 0.9625,0.7549 1.75,1.5424 1.75,1.75 0,0.8231 -0.82119,0.2933 -2.12756,-1.3724 z M 1028,1778.5 c 1.2917,-1.375 2.5736,-2.5 2.8486,-2.5 0.275,0 -0.5569,1.125 -1.8486,2.5 -1.2917,1.375 -2.5736,2.5 -2.8486,2.5 -0.275,0 0.5569,-1.125 1.8486,-2.5 z m -610.12756,-35.25 c -1.24387,-1.5861 -1.2085,-1.6214 0.37756,-0.3776 1.66575,1.3064 2.19548,2.1276 1.37244,2.1276 -0.20765,0 -0.99515,-0.7875 -1.75,-1.75 z m 1201.10966,-15.5 c 5.7652,-5.9125 10.6027,-10.75 10.75,-10.75 0.7222,0 -0.4973,1.2818 -10.4821,11.0179 L 1608.5,1738.5 Z m -1236.57711,-20 -1.90499,-2.25 2.25,1.905 c 2.11444,1.7902 2.70524,2.595 1.90499,2.595 -0.18976,0 -1.20226,-1.0125 -2.25,-2.25 z M 1644,1701.6224 c 0,-0.2076 0.7875,-0.9951 1.75,-1.75 1.5861,-1.2438 1.6214,-1.2085 0.3776,0.3776 -1.3064,1.6657 -2.1276,2.1955 -2.1276,1.3724 z M 1229.5,1689 c 0.9955,-1.1 2.035,-2 2.31,-2 0.275,0 -0.3145,0.9 -1.31,2 -0.9955,1.1 -2.035,2 -2.31,2 -0.275,0 0.3145,-0.9 1.31,-2 z m 5,-5 c 0.9955,-1.1 2.035,-2 2.31,-2 0.275,0 -0.3145,0.9 -1.31,2 -0.9955,1.1 -2.035,2 -2.31,2 -0.275,0 0.3145,-0.9 1.31,-2 z M 1077,1663.6871 c 0,-0.1721 1.4625,-1.6346 3.25,-3.25 l 3.25,-2.9371 -2.9371,3.25 c -2.7378,3.0295 -3.5629,3.7097 -3.5629,2.9371 z M 932.45295,1655.75 928.5,1651.5 l 4.25,3.9529 c 3.95246,3.6762 4.70953,4.5471 3.95295,4.5471 -0.16338,0 -2.07588,-1.9125 -4.25,-4.25 z m -245.374,-50.3333 c 0.048,-1.165 0.28494,-1.4019 0.60416,-0.6042 0.28887,0.7219 0.25335,1.5844 -0.0789,1.9167 -0.33229,0.3323 -0.56864,-0.2584 -0.52522,-1.3125 z M 1332.2997,1597 c 0,-3.025 0.1874,-4.2625 0.4166,-2.75 0.2291,1.5125 0.2291,3.9875 0,5.5 -0.2292,1.5125 -0.4166,0.275 -0.4166,-2.75 z m -645.22075,-0.5833 c 0.048,-1.165 0.28494,-1.4019 0.60416,-0.6042 0.28887,0.7219 0.25335,1.5844 -0.0789,1.9167 -0.33229,0.3323 -0.56864,-0.2584 -0.52522,-1.3125 z M 737.27236,1573 c 0,-2.475 0.19502,-3.4875 0.43337,-2.25 0.23836,1.2375 0.23836,3.2625 0,4.5 -0.23835,1.2375 -0.43337,0.225 -0.43337,-2.25 z m 388.80654,-13.5833 c 0.048,-1.165 0.285,-1.4019 0.6042,-0.6042 0.2889,0.7219 0.2534,1.5844 -0.079,1.9167 -0.3323,0.3323 -0.5687,-0.2584 -0.5253,-1.3125 z M 1231,1521.0314 c 0,-0.5328 0.675,-0.7096 1.5,-0.393 0.825,0.3166 1.5,0.7524 1.5,0.9686 0,0.2161 -0.675,0.393 -1.5,0.393 -0.825,0 -1.5,-0.4359 -1.5,-0.9686 z M 697.40499,1478.75 695.5,1476.5 l 2.25,1.905 c 2.11444,1.7902 2.70524,2.595 1.90499,2.595 -0.18976,0 -1.20226,-1.0125 -2.25,-2.25 z M 982.15789,1464 c 0,-1.375 0.22698,-1.9375 0.50439,-1.25 0.27741,0.6875 0.27741,1.8125 0,2.5 -0.27741,0.6875 -0.50439,0.125 -0.50439,-1.25 z m -0.0789,-5.5833 c 0.048,-1.165 0.28494,-1.4019 0.60416,-0.6042 0.28887,0.7219 0.25335,1.5844 -0.0789,1.9167 -0.33229,0.3323 -0.56864,-0.2584 -0.52522,-1.3125 z m -433,-16 c 0.048,-1.165 0.28494,-1.4019 0.60416,-0.6042 0.28887,0.7219 0.25335,1.5844 -0.0789,1.9167 -0.33229,0.3323 -0.56864,-0.2584 -0.52522,-1.3125 z m -81,-1 c 0.048,-1.165 0.28494,-1.4019 0.60416,-0.6042 0.28887,0.7219 0.25335,1.5844 -0.0789,1.9167 -0.33229,0.3323 -0.56864,-0.2584 -0.52522,-1.3125 z m 1081.99995,0 c 0.048,-1.165 0.285,-1.4019 0.6042,-0.6042 0.2889,0.7219 0.2534,1.5844 -0.079,1.9167 -0.3323,0.3323 -0.5687,-0.2584 -0.5253,-1.3125 z M 467.15789,1428 c 0,-1.375 0.22698,-1.9375 0.50439,-1.25 0.27741,0.6875 0.27741,1.8125 0,2.5 -0.27741,0.6875 -0.50439,0.125 -0.50439,-1.25 z m 1084.00001,0 c 0,-1.375 0.227,-1.9375 0.5044,-1.25 0.2774,0.6875 0.2774,1.8125 0,2.5 -0.2774,0.6875 -0.5044,0.125 -0.5044,-1.25 z M 548.232,1423 c 0,-1.925 0.2058,-2.7125 0.45733,-1.75 0.25152,0.9625 0.25152,2.5375 0,3.5 -0.25153,0.9625 -0.45733,0.175 -0.45733,-1.75 z m 921.9629,-1.5 c 0.02,-1.65 0.2445,-2.2039 0.4981,-1.231 0.2535,0.973 0.2369,2.323 -0.037,3 -0.2739,0.6771 -0.4813,-0.119 -0.461,-1.769 z M 466.232,1406 c 0,-1.925 0.2058,-2.7125 0.45733,-1.75 0.25152,0.9625 0.25152,2.5375 0,3.5 -0.25153,0.9625 -0.45733,0.175 -0.45733,-1.75 z m 263.92589,1 c 0,-1.375 0.22698,-1.9375 0.50439,-1.25 0.27741,0.6875 0.27741,1.8125 0,2.5 -0.27741,0.6875 -0.50439,0.125 -0.50439,-1.25 z m 822.14181,-8 c 0,-3.025 0.1874,-4.2625 0.4166,-2.75 0.2291,1.5125 0.2291,3.9875 0,5.5 -0.2292,1.5125 -0.4166,0.275 -0.4166,-2.75 z m 0.028,-15.5 c 0,-3.85 0.1852,-5.3025 0.4017,-3.2277 0.2165,2.0748 0.2128,5.2248 -0.01,7 -0.2209,1.7752 -0.398,0.078 -0.3936,-3.7723 z m -634.92311,2.25 -1.90499,-2.25 2.25,1.905 c 1.2375,1.0477 2.25,2.0602 2.25,2.25 0,0.8002 -0.80479,0.2094 -2.59501,-1.905 z m -6.9679,-7 -2.93709,-3.25 3.25,2.9371 c 3.02946,2.7378 3.70965,3.5629 2.93709,3.5629 -0.1721,0 -1.6346,-1.4625 -3.25,-3.25 z m 559.75781,-1.25 c 0.02,-1.65 0.2445,-2.2039 0.4981,-1.231 0.2535,0.973 0.2369,2.323 -0.037,3 -0.2739,0.6771 -0.4813,-0.119 -0.461,-1.769 z M 548.15789,1374 c 0,-1.375 0.22698,-1.9375 0.50439,-1.25 0.27741,0.6875 0.27741,1.8125 0,2.5 -0.27741,0.6875 -0.50439,0.125 -0.50439,-1.25 z m -81.88553,-4 c 0,-2.475 0.19502,-3.4875 0.43337,-2.25 0.23836,1.2375 0.23836,3.2625 0,4.5 -0.23835,1.2375 -0.43337,0.225 -0.43337,-2.25 z m 1002.80654,-12.5833 c 0.048,-1.165 0.285,-1.4019 0.6042,-0.6042 0.2889,0.7219 0.2534,1.5844 -0.079,1.9167 -0.3323,0.3323 -0.5687,-0.2584 -0.5253,-1.3125 z m -919.99995,-2 c 0.048,-1.165 0.28494,-1.4019 0.60416,-0.6042 0.28887,0.7219 0.25335,1.5844 -0.0789,1.9167 -0.33229,0.3323 -0.56864,-0.2584 -0.52522,-1.3125 z m 1001.99995,-2 c 0.048,-1.165 0.285,-1.4019 0.6042,-0.6042 0.2889,0.7219 0.2534,1.5844 -0.079,1.9167 -0.3323,0.3323 -0.5687,-0.2584 -0.5253,-1.3125 z m -1083.99995,-6 c 0.048,-1.165 0.28494,-1.4019 0.60416,-0.6042 0.28887,0.7219 0.25335,1.5844 -0.0789,1.9167 -0.33229,0.3323 -0.56864,-0.2584 -0.52522,-1.3125 z m 1082.99995,-8 c 0.048,-1.165 0.285,-1.4019 0.6042,-0.6042 0.2889,0.7219 0.2534,1.5844 -0.079,1.9167 -0.3323,0.3323 -0.5687,-0.2584 -0.5253,-1.3125 z m 150,-57 c 0.048,-1.165 0.285,-1.4019 0.6042,-0.6042 0.2889,0.7219 0.2534,1.5844 -0.079,1.9167 -0.3323,0.3323 -0.5687,-0.2584 -0.5253,-1.3125 z M 319.15789,1271 c 0,-1.375 0.22698,-1.9375 0.50439,-1.25 0.27741,0.6875 0.27741,1.8125 0,2.5 -0.27741,0.6875 -0.50439,0.125 -0.50439,-1.25 z m -138.07894,-1.5833 c 0.048,-1.165 0.28494,-1.4019 0.60416,-0.6042 0.28887,0.7219 0.25335,1.5844 -0.0789,1.9167 -0.3323,0.3323 -0.56864,-0.2584 -0.52522,-1.3125 z M 1701.232,1262 c 0,-1.925 0.2058,-2.7125 0.4573,-1.75 0.2516,0.9625 0.2516,2.5375 0,3.5 -0.2515,0.9625 -0.4573,0.175 -0.4573,-1.75 z m -1521.15305,-7.5833 c 0.048,-1.165 0.28494,-1.4019 0.60416,-0.6042 0.28887,0.7219 0.25335,1.5844 -0.0789,1.9167 -0.3323,0.3323 -0.56864,-0.2584 -0.52522,-1.3125 z M 318.25218,1245.5 c 0.0111,-2.2 0.21589,-2.9823 0.45508,-1.7383 0.23919,1.2439 0.23011,3.0439 -0.0202,4 -0.25029,0.956 -0.446,-0.062 -0.4349,-2.2617 z m 1522.03382,-13 c 0.01,-2.75 0.2017,-3.7563 0.4316,-2.2363 0.2298,1.5201 0.2237,3.7701 -0.014,5 -0.2373,1.23 -0.4254,-0.014 -0.4179,-2.7637 z m -1660.88606,-17 c 0.001,-8.25 0.15629,-11.4919 0.34419,-7.2043 0.1879,4.2876 0.18676,11.0376 -0.003,15 -0.1893,3.9624 -0.34304,0.4543 -0.34164,-7.7957 z m 138.88607,-10 c 0.008,-2.75 0.20172,-3.7563 0.43157,-2.2363 0.22986,1.5201 0.22371,3.7701 -0.0136,5 -0.23736,1.23 -0.42542,-0.014 -0.41792,-2.7637 z m 1521.96619,-5 c 0.011,-2.2 0.2159,-2.9823 0.4551,-1.7383 0.2392,1.2439 0.2301,3.0439 -0.02,4 -0.2503,0.956 -0.446,-0.062 -0.4349,-2.2617 z M 1701.232,1196 c 0,-1.925 0.2058,-2.7125 0.4573,-1.75 0.2516,0.9625 0.2516,2.5375 0,3.5 -0.2515,0.9625 -0.4573,0.175 -0.4573,-1.75 z M 180.15789,1178 c 0,-1.375 0.22698,-1.9375 0.50439,-1.25 0.27741,0.6875 0.27741,1.8125 0,2.5 -0.27741,0.6875 -0.50439,0.125 -0.50439,-1.25 z m 138.92106,0.4167 c 0.048,-1.165 0.28494,-1.4019 0.60416,-0.6042 0.28887,0.7219 0.25335,1.5844 -0.0789,1.9167 -0.33229,0.3323 -0.56864,-0.2584 -0.52522,-1.3125 z m 1380.99995,-4 c 0.048,-1.165 0.285,-1.4019 0.6042,-0.6042 0.2889,0.7219 0.2534,1.5844 -0.079,1.9167 -0.3323,0.3323 -0.5687,-0.2584 -0.5253,-1.3125 z m -1379.99995,-11 c 0.048,-1.165 0.28494,-1.4019 0.60416,-0.6042 0.28887,0.7219 0.25335,1.5844 -0.0789,1.9167 -0.33229,0.3323 -0.56864,-0.2584 -0.52522,-1.3125 z M 1693,1076.5 c 1.8658,-1.925 3.6173,-3.5 3.8923,-3.5 0.275,0 -1.0265,1.575 -2.8923,3.5 -1.8658,1.925 -3.6173,3.5 -3.8923,3.5 -0.275,0 1.0265,-1.575 2.8923,-3.5 z M 309.87244,1058.25 c -1.24387,-1.5861 -1.2085,-1.6214 0.37756,-0.3776 0.9625,0.7549 1.75,1.5424 1.75,1.75 0,0.8231 -0.82119,0.2933 -2.12756,-1.3724 z M 1711.5,1058 c 0.9955,-1.1 2.035,-2 2.31,-2 0.275,0 -0.3145,0.9 -1.31,2 -0.9955,1.1 -2.035,2 -2.31,2 -0.275,0 0.3145,-0.9 1.31,-2 z M 621.8125,1047.3169 c 0.72187,-0.2889 1.58438,-0.2534 1.91667,0.079 0.33229,0.3323 -0.25834,0.5687 -1.3125,0.5253 -1.16495,-0.048 -1.4019,-0.285 -0.60417,-0.6042 z m 13.9375,-0.023 c 1.2375,-0.2384 3.2625,-0.2384 4.5,0 1.2375,0.2383 0.225,0.4333 -2.25,0.4333 -2.475,0 -3.4875,-0.195 -2.25,-0.4333 z m 734.0625,-0.9774 c 0.7219,-0.2889 1.5844,-0.2534 1.9167,0.079 0.3323,0.3323 -0.2584,0.5687 -1.3125,0.5253 -1.165,-0.048 -1.4019,-0.285 -0.6042,-0.6042 z m 32.9375,0.021 c 0.6875,-0.2774 1.8125,-0.2774 2.5,0 0.6875,0.2774 0.125,0.5044 -1.25,0.5044 -1.375,0 -1.9375,-0.227 -1.25,-0.5044 z m -45.9375,-1.0208 c 0.7219,-0.2889 1.5844,-0.2534 1.9167,0.079 0.3323,0.3323 -0.2584,0.5687 -1.3125,0.5253 -1.165,-0.048 -1.4019,-0.285 -0.6042,-0.6042 z M 832,970.62244 c 0,-0.20765 0.7875,-0.99515 1.75,-1.75 1.58606,-1.24387 1.62143,-1.2085 0.37756,0.37756 C 832.82119,970.91575 832,971.44548 832,970.62244 Z m 347.9243,-6.37244 -2.4243,-2.75 2.75,2.42431 c 1.5125,1.33338 2.75,2.57088 2.75,2.75 0,0.78428 -0.8098,0.14598 -3.0757,-2.42431 z m -760.95846,-7 -5.46584,-5.75 5.75,5.46584 c 3.1625,3.00621 5.75,5.59371 5.75,5.75 0,0.74225 -0.95622,-0.12391 -6.03416,-5.46584 z M 848,954.62244 c 0,-0.20765 0.7875,-0.99515 1.75,-1.75 1.58606,-1.24387 1.62143,-1.2085 0.37756,0.37756 C 848.82119,954.91575 848,955.44548 848,954.62244 Z m 524.8125,-76.30555 c 0.7219,-0.28887 1.5844,-0.25335 1.9167,0.0789 0.3323,0.33229 -0.2584,0.56864 -1.3125,0.52522 -1.165,-0.048 -1.4019,-0.28494 -0.6042,-0.60416 z m 316.2664,-105.90022 c 0.048,-1.16495 0.285,-1.4019 0.6042,-0.60417 0.2889,0.72187 0.2534,1.58438 -0.079,1.91667 -0.3323,0.33229 -0.5687,-0.25834 -0.5253,-1.3125 z M 756.15789,763 c 0,-1.375 0.22698,-1.9375 0.50439,-1.25 0.27741,0.6875 0.27741,1.8125 0,2.5 -0.27741,0.6875 -0.50439,0.125 -0.50439,-1.25 z m 506.07411,-3 c 0,-1.925 0.2058,-2.7125 0.4573,-1.75 0.2516,0.9625 0.2516,2.5375 0,3.5 -0.2515,0.9625 -0.4573,0.175 -0.4573,-1.75 z m 245,-2 c 0,-1.925 0.2058,-2.7125 0.4573,-1.75 0.2516,0.9625 0.2516,2.5375 0,3.5 -0.2515,0.9625 -0.4573,0.175 -0.4573,-1.75 z m 182.8469,1.41667 c 0.048,-1.16495 0.285,-1.4019 0.6042,-0.60417 0.2889,0.72187 0.2534,1.58438 -0.079,1.91667 -0.3323,0.33229 -0.5687,-0.25834 -0.5253,-1.3125 z M 511.25218,752.5 c 0.0111,-2.2 0.21589,-2.98225 0.45508,-1.73834 0.23919,1.24391 0.23011,3.04391 -0.0202,4 -0.25029,0.95609 -0.446,-0.0617 -0.4349,-2.26166 z m -182.17323,0.91667 c 0.048,-1.16495 0.28494,-1.4019 0.60416,-0.60417 0.28887,0.72187 0.25335,1.58438 -0.0789,1.91667 -0.33229,0.33229 -0.56864,-0.25834 -0.52522,-1.3125 z m 427,0 c 0.048,-1.16495 0.28494,-1.4019 0.60416,-0.60417 0.28887,0.72187 0.25335,1.58438 -0.0789,1.91667 -0.33229,0.33229 -0.56864,-0.25834 -0.52522,-1.3125 z m 505.99995,-6 c 0.048,-1.16495 0.285,-1.4019 0.6042,-0.60417 0.2889,0.72187 0.2534,1.58438 -0.079,1.91667 -0.3323,0.33229 -0.5687,-0.25834 -0.5253,-1.3125 z M 890.87244,733.25 c -1.24387,-1.58606 -1.2085,-1.62143 0.37756,-0.37756 0.9625,0.75485 1.75,1.54235 1.75,1.75 0,0.82304 -0.82119,0.29331 -2.12756,-1.37244 z M 1131.5,728 c 0.9955,-1.1 2.035,-2 2.31,-2 0.275,0 -0.3145,0.9 -1.31,2 -0.9955,1.1 -2.035,2 -2.31,2 -0.275,0 0.3145,-0.9 1.31,-2 z m -802.42105,-4.58333 c 0.048,-1.16495 0.28494,-1.4019 0.60416,-0.60417 0.28887,0.72187 0.25335,1.58438 -0.0789,1.91667 -0.33229,0.33229 -0.56864,-0.25834 -0.52522,-1.3125 z m 1360.99995,-1 c 0.048,-1.16495 0.285,-1.4019 0.6042,-0.60417 0.2889,0.72187 0.2534,1.58438 -0.079,1.91667 -0.3323,0.33229 -0.5687,-0.25834 -0.5253,-1.3125 z M 870.87244,712.25 c -1.24387,-1.58606 -1.2085,-1.62143 0.37756,-0.37756 0.9625,0.75485 1.75,1.54235 1.75,1.75 0,0.82304 -0.82119,0.29331 -2.12756,-1.37244 z M 1151.5,708 c 2.1482,-2.2 4.1309,-4 4.4059,-4 0.275,0 -1.2577,1.8 -3.4059,4 -2.1482,2.2 -4.1309,4 -4.4059,4 -0.275,0 1.2577,-1.8 3.4059,-4 z M 894.87244,630.25 c -1.24387,-1.58606 -1.2085,-1.62143 0.37756,-0.37756 1.66575,1.30637 2.19548,2.12756 1.37244,2.12756 -0.20765,0 -0.99515,-0.7875 -1.75,-1.75 z M 1133.5,620 c 3.8205,-3.85 7.1714,-7 7.4464,-7 0.275,0 -2.6259,3.15 -6.4464,7 -3.8205,3.85 -7.1714,7 -7.4464,7 -0.275,0 2.6259,-3.15 6.4464,-7 z M 871.94617,607.25 868.5,603.5 l 3.75,3.44617 c 3.49042,3.20761 4.20979,4.05383 3.44617,4.05383 -0.16711,0 -1.85461,-1.6875 -3.75,-3.75 z M 1153,601.62244 c 0,-0.20765 0.7875,-0.99515 1.75,-1.75 1.5861,-1.24387 1.6214,-1.2085 0.3776,0.37756 -1.3064,1.66575 -2.1276,2.19548 -2.1276,1.37244 z m -38,-63 c 0,-0.20765 0.7875,-0.99515 1.75,-1.75 1.5861,-1.24387 1.6214,-1.2085 0.3776,0.37756 -1.3064,1.66575 -2.1276,2.19548 -2.1276,1.37244 z m 20,-20.93535 c 0,-0.1721 1.4625,-1.6346 3.25,-3.25 l 3.25,-2.93709 -2.9371,3.25 c -2.7378,3.02946 -3.5629,3.70965 -3.5629,2.93709 z M 876.4687,508.75 870.5,502.5 l 6.25,5.9687 c 5.80572,5.54441 6.7076,6.5313 5.9687,6.5313 -0.15472,0 -2.96722,-2.8125 -6.25,-6.25 z M 1160,493.62244 c 0,-0.20765 0.7875,-0.99515 1.75,-1.75 1.5861,-1.24387 1.6214,-1.2085 0.3776,0.37756 -1.3064,1.66575 -2.1276,2.19548 -2.1276,1.37244 z M 349.40499,303.75 347.5,301.5 l 2.25,1.90499 c 2.11444,1.79022 2.70524,2.59501 1.90499,2.59501 -0.18976,0 -1.20226,-1.0125 -2.25,-2.25 z M 1666.5,303 c 0.9955,-1.1 2.035,-2 2.31,-2 0.275,0 -0.3145,0.9 -1.31,2 -0.9955,1.1 -2.035,2 -2.31,2 -0.275,0 0.3145,-0.9 1.31,-2 z M 326.40499,280.75 324.5,278.5 l 2.25,1.90499 c 2.11444,1.79022 2.70524,2.59501 1.90499,2.59501 -0.18976,0 -1.20226,-1.0125 -2.25,-2.25 z M 1688.5,281 c 0.9955,-1.1 2.035,-2 2.31,-2 0.275,0 -0.3145,0.9 -1.31,2 -0.9955,1.1 -2.035,2 -2.31,2 -0.275,0 0.3145,-0.9 1.31,-2 z m -5,-112 c 0.9955,-1.1 2.035,-2 2.31,-2 0.275,0 -0.3145,0.9 -1.31,2 -0.9955,1.1 -2.035,2 -2.31,2 -0.275,0 0.3145,-0.9 1.31,-2 z M 329.40499,164.75 327.5,162.5 l 2.25,1.90499 c 1.2375,1.04774 2.25,2.06024 2.25,2.25 0,0.80025 -0.80479,0.20945 -2.59501,-1.90499 z m -15.9679,-16 -2.93709,-3.25 3.25,2.93709 c 3.02946,2.73778 3.70965,3.56291 2.93709,3.56291 -0.1721,0 -1.6346,-1.4625 -3.25,-3.25 z M 208.25218,16.5 c 0.0111,-2.2 0.21589,-2.982253 0.45508,-1.738341 0.23919,1.243913 0.23011,3.043913 -0.0202,4 C 208.43679,19.717747 208.24108,18.7 208.25218,16.5 Z M 1808.1579,15 c 0,-1.375 0.227,-1.9375 0.5044,-1.25 0.2774,0.6875 0.2774,1.8125 0,2.5 -0.2774,0.6875 -0.5044,0.125 -0.5044,-1.25 z"
         id="path4" />
      <path
         style="fill-opacity:1;fill:#3a7bd5"
         d="m 774.92431,1889.25 -2.42431,-2.75 2.75,2.4243 c 1.5125,1.3334 2.75,2.5709 2.75,2.75 0,0.7843 -0.8098,0.146 -3.07569,-2.4243 z M 1251,1884.5 c 1.2917,-1.375 2.5736,-2.5 2.8486,-2.5 0.275,0 -0.5569,1.125 -1.8486,2.5 -1.2917,1.375 -2.5736,2.5 -2.8486,2.5 -0.275,0 0.5569,-1.125 1.8486,-2.5 z m -499.02208,-17.25 -8.47792,-8.75 8.75,8.4779 c 8.12674,7.8741 9.20553,9.0221 8.47792,9.0221 -0.14964,0 -4.08714,-3.9375 -8.75,-8.75 z M 1281,1854.5 c 1.2917,-1.375 2.5736,-2.5 2.8486,-2.5 0.275,0 -0.5569,1.125 -1.8486,2.5 -1.2917,1.375 -2.5736,2.5 -2.8486,2.5 -0.275,0 0.5569,-1.125 1.8486,-2.5 z m -543.07569,-1.25 -2.42431,-2.75 2.75,2.4243 c 1.5125,1.3334 2.75,2.5709 2.75,2.75 0,0.7843 -0.8098,0.146 -3.07569,-2.4243 z M 1345.5,1853 c 0.9955,-1.1 2.035,-2 2.31,-2 0.275,0 -0.3145,0.9 -1.31,2 -0.9955,1.1 -2.035,2 -2.31,2 -0.275,0 0.3145,-0.9 1.31,-2 z m -673.09501,-4.25 -1.90499,-2.25 2.25,1.905 c 1.2375,1.0477 2.25,2.0602 2.25,2.25 0,0.8002 -0.80479,0.2094 -2.59501,-1.905 z M 1295.5,1839 c 0.9955,-1.1 2.035,-2 2.31,-2 0.275,0 -0.3145,0.9 -1.31,2 -0.9955,1.1 -2.035,2 -2.31,2 -0.275,0 0.3145,-0.9 1.31,-2 z m 134.5,1.6224 c 0,-0.2076 0.7875,-0.9951 1.75,-1.75 1.5861,-1.2438 1.6214,-1.2085 0.3776,0.3776 -1.3064,1.6657 -2.1276,2.1955 -2.1276,1.3724 z M 722.87244,1837.25 c -1.24387,-1.5861 -1.2085,-1.6214 0.37756,-0.3776 0.9625,0.7549 1.75,1.5424 1.75,1.75 0,0.8231 -0.82119,0.2933 -2.12756,-1.3724 z M 1110,1838.6224 c 0,-0.2076 0.7875,-0.9951 1.75,-1.75 1.5861,-1.2438 1.6214,-1.2085 0.3776,0.3776 -1.3064,1.6657 -2.1276,2.1955 -2.1276,1.3724 z M 1440.5,1831 c 0.9955,-1.1 2.035,-2 2.31,-2 0.275,0 -0.3145,0.9 -1.31,2 -0.9955,1.1 -2.035,2 -2.31,2 -0.275,0 0.3145,-0.9 1.31,-2 z m -137.5,-0.3776 c 0,-0.2076 0.7875,-0.9951 1.75,-1.75 1.5861,-1.2438 1.6214,-1.2085 0.3776,0.3776 -1.3064,1.6657 -2.1276,2.1955 -2.1276,1.3724 z M 713.87244,1827.25 c -1.24387,-1.5861 -1.2085,-1.6214 0.37756,-0.3776 1.66575,1.3064 2.19548,2.1276 1.37244,2.1276 -0.20765,0 -0.99515,-0.7875 -1.75,-1.75 z m -141.46745,-2.5 -1.90499,-2.25 2.25,1.905 c 1.2375,1.0477 2.25,2.0602 2.25,2.25 0,0.8002 -0.80479,0.2094 -2.59501,-1.905 z m 884.55321,-9 c 2.452,-2.6125 4.5895,-4.75 4.75,-4.75 0.7509,0 -0.043,0.8978 -4.4582,5.0418 l -4.75,4.4582 z M 1382,1816.5 c 1.2917,-1.375 2.5736,-2.5 2.8486,-2.5 0.275,0 -0.5569,1.125 -1.8486,2.5 -1.2917,1.375 -2.5736,2.5 -2.8486,2.5 -0.275,0 0.5569,-1.125 1.8486,-2.5 z m -746.59501,-4.75 -1.90499,-2.25 2.25,1.905 c 2.11444,1.7902 2.70524,2.595 1.90499,2.595 -0.18976,0 -1.20226,-1.0125 -2.25,-2.25 z M 1185,1813.6224 c 0,-0.2076 0.7875,-0.9951 1.75,-1.75 1.5861,-1.2438 1.6214,-1.2085 0.3776,0.3776 -1.3064,1.6657 -2.1276,2.1955 -2.1276,1.3724 z M 547.47915,1800.75 538.5,1791.5 l 9.25,8.9792 c 8.59119,8.3396 9.7052,9.5208 8.97915,9.5208 -0.14897,0 -4.31147,-4.1625 -9.25,-9.25 z M 1483.5,1789 c 2.1482,-2.2 4.1309,-4 4.4059,-4 0.275,0 -1.2577,1.8 -3.4059,4 -2.1482,2.2 -4.1309,4 -4.4059,4 -0.275,0 1.2577,-1.8 3.4059,-4 z m -958.09501,-11.25 -1.90499,-2.25 2.25,1.905 c 1.2375,1.0477 2.25,2.0602 2.25,2.25 0,0.8002 -0.80479,0.2094 -2.59501,-1.905 z M 1497.5,1774 c 0.9955,-1.1 2.035,-2 2.31,-2 0.275,0 -0.3145,0.9 -1.31,2 -0.9955,1.1 -2.035,2 -2.31,2 -0.275,0 0.3145,-0.9 1.31,-2 z m -285.3051,-9.5 c 0.02,-1.65 0.2445,-2.2039 0.4981,-1.231 0.2535,0.973 0.2369,2.323 -0.037,3 -0.2739,0.6771 -0.4813,-0.119 -0.461,-1.769 z M 1577,1766.6224 c 0,-0.2076 0.7875,-0.9951 1.75,-1.75 1.5861,-1.2438 1.6214,-1.2085 0.3776,0.3776 -1.3064,1.6657 -2.1276,2.1955 -2.1276,1.3724 z m -768.92105,-5.2057 c 0.048,-1.165 0.28494,-1.4019 0.60416,-0.6042 0.28887,0.7219 0.25335,1.5844 -0.0789,1.9167 -0.33229,0.3323 -0.56864,-0.2584 -0.52522,-1.3125 z M 436.87244,1760.25 c -1.24387,-1.5861 -1.2085,-1.6214 0.37756,-0.3776 0.9625,0.7549 1.75,1.5424 1.75,1.75 0,0.8231 -0.82119,0.2933 -2.12756,-1.3724 z m 72,-1 c -1.24387,-1.5861 -1.2085,-1.6214 0.37756,-0.3776 0.9625,0.7549 1.75,1.5424 1.75,1.75 0,0.8231 -0.82119,0.2933 -2.12756,-1.3724 z M 1586,1758.6224 c 0,-0.2076 0.7875,-0.9951 1.75,-1.75 1.5861,-1.2438 1.6214,-1.2085 0.3776,0.3776 -1.3064,1.6657 -2.1276,2.1955 -2.1276,1.3724 z M 808.15789,1754 c 0,-1.375 0.22698,-1.9375 0.50439,-1.25 0.27741,0.6875 0.27741,1.8125 0,2.5 -0.27741,0.6875 -0.50439,0.125 -0.50439,-1.25 z m -381.7529,-3.25 -1.90499,-2.25 2.25,1.905 c 1.2375,1.0477 2.25,2.0602 2.25,2.25 0,0.8002 -0.80479,0.2094 -2.59501,-1.905 z m 556.67396,-0.3333 c 0.048,-1.165 0.28494,-1.4019 0.60416,-0.6042 0.28887,0.7219 0.25335,1.5844 -0.0789,1.9167 -0.33229,0.3323 -0.56864,-0.2584 -0.52522,-1.3125 z M 1598,1747.5 c 1.2917,-1.375 2.5736,-2.5 2.8486,-2.5 0.275,0 -0.5569,1.125 -1.8486,2.5 -1.2917,1.375 -2.5736,2.5 -2.8486,2.5 -0.275,0 0.5569,-1.125 1.8486,-2.5 z m -1187.5313,-11.75 -5.9687,-6.25 6.25,5.9687 c 5.80572,5.5444 6.7076,6.5313 5.9687,6.5313 -0.15472,0 -2.96722,-2.8125 -6.25,-6.25 z m -22.52253,-22.5 -3.44617,-3.75 3.75,3.4462 c 2.0625,1.8954 3.75,3.5829 3.75,3.75 0,0.7636 -0.84622,0.044 -4.05383,-3.4462 z M 1641.5,1704 c 0.9955,-1.1 2.035,-2 2.31,-2 0.275,0 -0.3145,0.9 -1.31,2 -0.9955,1.1 -2.035,2 -2.31,2 -0.275,0 0.3145,-0.9 1.31,-2 z m -1268.09501,-6.25 -1.90499,-2.25 2.25,1.905 c 2.11444,1.7902 2.70524,2.595 1.90499,2.595 -0.18976,0 -1.20226,-1.0125 -2.25,-2.25 z M 1225,1693.6224 c 0,-0.2076 0.7875,-0.9951 1.75,-1.75 1.5861,-1.2438 1.6214,-1.2085 0.3776,0.3776 -1.3064,1.6657 -2.1276,2.1955 -2.1276,1.3724 z m 427,-1 c 0,-0.2076 0.7875,-0.9951 1.75,-1.75 1.5861,-1.2438 1.6214,-1.2085 0.3776,0.3776 -1.3064,1.6657 -2.1276,2.1955 -2.1276,1.3724 z M 363.40499,1686.75 361.5,1684.5 l 2.25,1.905 c 2.11444,1.7902 2.70524,2.595 1.90499,2.595 -0.18976,0 -1.20226,-1.0125 -2.25,-2.25 z m 421.51932,-0.5 -2.42431,-2.75 2.75,2.4243 c 1.5125,1.3334 2.75,2.5709 2.75,2.75 0,0.7843 -0.8098,0.146 -3.07569,-2.4243 z M 1659,1684.6224 c 0,-0.2076 0.7875,-0.9951 1.75,-1.75 1.5861,-1.2438 1.6214,-1.2085 0.3776,0.3776 -1.3064,1.6657 -2.1276,2.1955 -2.1276,1.3724 z M 1074.5,1666 c 0.9955,-1.1 2.035,-2 2.31,-2 0.275,0 -0.3145,0.9 -1.31,2 -0.9955,1.1 -2.035,2 -2.31,2 -0.275,0 0.3145,-0.9 1.31,-2 z m -136.62756,-4.75 c -1.24387,-1.5861 -1.2085,-1.6214 0.37756,-0.3776 1.66575,1.3064 2.19548,2.1276 1.37244,2.1276 -0.20765,0 -0.99515,-0.7875 -1.75,-1.75 z M 1301,1662.6224 c 0,-0.2076 0.7875,-0.9951 1.75,-1.75 1.5861,-1.2438 1.6214,-1.2085 0.3776,0.3776 -1.3064,1.6657 -2.1276,2.1955 -2.1276,1.3724 z M 1085,1655.5 c 1.2917,-1.375 2.5736,-2.5 2.8486,-2.5 0.275,0 -0.5569,1.125 -1.8486,2.5 -1.2917,1.375 -2.5736,2.5 -2.8486,2.5 -0.275,0 0.5569,-1.125 1.8486,-2.5 z m -158.12756,-5.25 c -1.24387,-1.5861 -1.2085,-1.6214 0.37756,-0.3776 1.66575,1.3064 2.19548,2.1276 1.37244,2.1276 -0.20765,0 -0.99515,-0.7875 -1.75,-1.75 z m -58,-9 c -1.24387,-1.5861 -1.2085,-1.6214 0.37756,-0.3776 1.66575,1.3064 2.19548,2.1276 1.37244,2.1276 -0.20765,0 -0.99515,-0.7875 -1.75,-1.75 z M 1152.5,1638 c 2.1482,-2.2 4.1309,-4 4.4059,-4 0.275,0 -1.2577,1.8 -3.4059,4 -2.1482,2.2 -4.1309,4 -4.4059,4 -0.275,0 1.2577,-1.8 3.4059,-4 z m -290.06291,-3.25 -2.93709,-3.25 3.25,2.9371 c 3.02946,2.7378 3.70965,3.5629 2.93709,3.5629 -0.1721,0 -1.6346,-1.4625 -3.25,-3.25 z M 687.232,1601 c 0,-1.925 0.2058,-2.7125 0.45733,-1.75 0.25152,0.9625 0.25152,2.5375 0,3.5 -0.25153,0.9625 -0.45733,0.175 -0.45733,-1.75 z m 151.92589,-22 c 0,-1.375 0.22698,-1.9375 0.50439,-1.25 0.27741,0.6875 0.27741,1.8125 0,2.5 -0.27741,0.6875 -0.50439,0.125 -0.50439,-1.25 z m 338.92101,0.4167 c 0.048,-1.165 0.285,-1.4019 0.6042,-0.6042 0.2889,0.7219 0.2534,1.5844 -0.079,1.9167 -0.3323,0.3323 -0.5687,-0.2584 -0.5253,-1.3125 z m -440.99995,-1 c 0.048,-1.165 0.28494,-1.4019 0.60416,-0.6042 0.28887,0.7219 0.25335,1.5844 -0.0789,1.9167 -0.33229,0.3323 -0.56864,-0.2584 -0.52522,-1.3125 z m 388.99995,-16 c 0.048,-1.165 0.285,-1.4019 0.6042,-0.6042 0.2889,0.7219 0.2534,1.5844 -0.079,1.9167 -0.3323,0.3323 -0.5687,-0.2584 -0.5253,-1.3125 z M 889.32007,1551 c 0,-3.575 0.1815,-5.0375 0.40333,-3.25 0.22182,1.7875 0.22182,4.7125 0,6.5 -0.22183,1.7875 -0.40333,0.325 -0.40333,-3.25 z M 1236.5,1515 c 2.7086,-2.75 5.1498,-5 5.4248,-5 0.275,0 -1.7162,2.25 -4.4248,5 -2.7086,2.75 -5.1498,5 -5.4248,5 -0.275,0 1.7162,-2.25 4.4248,-5 z m -460.57569,-5.75 -2.42431,-2.75 2.75,2.4243 c 2.57029,2.2659 3.20859,3.0757 2.42431,3.0757 -0.17912,0 -1.41662,-1.2375 -2.75,-2.75 z M 1312.5,1486 c 0.9955,-1.1 2.035,-2 2.31,-2 0.275,0 -0.3145,0.9 -1.31,2 -0.9955,1.1 -2.035,2 -2.31,2 -0.275,0 0.3145,-0.9 1.31,-2 z m 3.5,-3.3776 c 0,-0.2076 0.7875,-0.9951 1.75,-1.75 1.5861,-1.2438 1.6214,-1.2085 0.3776,0.3776 -1.3064,1.6657 -2.1276,2.1955 -2.1276,1.3724 z m -765.92105,-25.2057 c 0.048,-1.165 0.28494,-1.4019 0.60416,-0.6042 0.28887,0.7219 0.25335,1.5844 -0.0789,1.9167 -0.33229,0.3323 -0.56864,-0.2584 -0.52522,-1.3125 z m 918.99995,-14 c 0.048,-1.165 0.285,-1.4019 0.6042,-0.6042 0.2889,0.7219 0.2534,1.5844 -0.079,1.9167 -0.3323,0.3323 -0.5687,-0.2584 -0.5253,-1.3125 z M 548.15789,1428 c 0,-1.375 0.22698,-1.9375 0.50439,-1.25 0.27741,0.6875 0.27741,1.8125 0,2.5 -0.27741,0.6875 -0.50439,0.125 -0.50439,-1.25 z m 922.00001,-2 c 0,-1.375 0.227,-1.9375 0.5044,-1.25 0.2774,0.6875 0.2774,1.8125 0,2.5 -0.2774,0.6875 -0.5044,0.125 -0.5044,-1.25 z m 81,-2 c 0,-1.375 0.227,-1.9375 0.5044,-1.25 0.2774,0.6875 0.2774,1.8125 0,2.5 -0.2774,0.6875 -0.5044,0.125 -0.5044,-1.25 z M 466.35496,1394.5 c -0.003,-4.95 0.16605,-7.1011 0.37577,-4.7802 0.20972,2.3209 0.21222,6.3709 0.006,9 -0.20667,2.6291 -0.37827,0.7302 -0.38131,-4.2198 z M 1552.1579,1392 c 0,-1.375 0.227,-1.9375 0.5044,-1.25 0.2774,0.6875 0.2774,1.8125 0,2.5 -0.2774,0.6875 -0.5044,0.125 -0.5044,-1.25 z M 466.27236,1378 c 0,-2.475 0.19502,-3.4875 0.43337,-2.25 0.23836,1.2375 0.23836,3.2625 0,4.5 -0.23835,1.2375 -0.43337,0.225 -0.43337,-2.25 z m 439.13263,-4.25 -1.90499,-2.25 2.25,1.905 c 1.2375,1.0477 2.25,2.0602 2.25,2.25 0,0.8002 -0.80479,0.2094 -2.59501,-1.905 z M 1470.1579,1373 c 0,-1.375 0.227,-1.9375 0.5044,-1.25 0.2774,0.6875 0.2774,1.8125 0,2.5 -0.2774,0.6875 -0.5044,0.125 -0.5044,-1.25 z m -922.00001,-3 c 0,-1.375 0.22698,-1.9375 0.50439,-1.25 0.27741,0.6875 0.27741,1.8125 0,2.5 -0.27741,0.6875 -0.50439,0.125 -0.50439,-1.25 z m 1003.00001,-13 c 0,-1.375 0.227,-1.9375 0.5044,-1.25 0.2774,0.6875 0.2774,1.8125 0,2.5 -0.2774,0.6875 -0.5044,0.125 -0.5044,-1.25 z m -1002.07895,-4.5833 c 0.048,-1.165 0.28494,-1.4019 0.60416,-0.6042 0.28887,0.7219 0.25335,1.5844 -0.0789,1.9167 -0.33229,0.3323 -0.56864,-0.2584 -0.52522,-1.3125 z m -82,-2 c 0.048,-1.165 0.28494,-1.4019 0.60416,-0.6042 0.28887,0.7219 0.25335,1.5844 -0.0789,1.9167 -0.33229,0.3323 -0.56864,-0.2584 -0.52522,-1.3125 z m 1,-14 c 0.048,-1.165 0.28494,-1.4019 0.60416,-0.6042 0.28887,0.7219 0.25335,1.5844 -0.0789,1.9167 -0.33229,0.3323 -0.56864,-0.2584 -0.52522,-1.3125 z m 1229.99995,-25 c 0.048,-1.165 0.285,-1.4019 0.6042,-0.6042 0.2889,0.7219 0.2534,1.5844 -0.079,1.9167 -0.3323,0.3323 -0.5687,-0.2584 -0.5253,-1.3125 z m 1,-12 c 0.048,-1.165 0.285,-1.4019 0.6042,-0.6042 0.2889,0.7219 0.2534,1.5844 -0.079,1.9167 -0.3323,0.3323 -0.5687,-0.2584 -0.5253,-1.3125 z m -490,-2 c 0.048,-1.165 0.285,-1.4019 0.6042,-0.6042 0.2889,0.7219 0.2534,1.5844 -0.079,1.9167 -0.3323,0.3323 -0.5687,-0.2584 -0.5253,-1.3125 z m -888.99995,-8 c 0.048,-1.165 0.28494,-1.4019 0.60416,-0.6042 0.28887,0.7219 0.25335,1.5844 -0.0789,1.9167 -0.33229,0.3323 -0.56864,-0.2584 -0.52522,-1.3125 z m 1379.99995,-4 c 0.048,-1.165 0.285,-1.4019 0.6042,-0.6042 0.2889,0.7219 0.2534,1.5844 -0.079,1.9167 -0.3323,0.3323 -0.5687,-0.2584 -0.5253,-1.3125 z M 319.15789,1275 c 0,-1.375 0.22698,-1.9375 0.50439,-1.25 0.27741,0.6875 0.27741,1.8125 0,2.5 -0.27741,0.6875 -0.50439,0.125 -0.50439,-1.25 z m 1518.92101,-6.5833 c 0.048,-1.165 0.285,-1.4019 0.6042,-0.6042 0.2889,0.7219 0.2534,1.5844 -0.079,1.9167 -0.3323,0.3323 -0.5687,-0.2584 -0.5253,-1.3125 z M 1701.1579,1267 c 0,-1.375 0.227,-1.9375 0.5044,-1.25 0.2774,0.6875 0.2774,1.8125 0,2.5 -0.2774,0.6875 -0.5044,0.125 -0.5044,-1.25 z M 318.25218,1252.5 c 0.0111,-2.2 0.21589,-2.9823 0.45508,-1.7383 0.23919,1.2439 0.23011,3.0439 -0.0202,4 -0.25029,0.956 -0.446,-0.062 -0.4349,-2.2617 z m 1520.90572,1.5 c 0,-1.375 0.227,-1.9375 0.5044,-1.25 0.2774,0.6875 0.2774,1.8125 0,2.5 -0.2774,0.6875 -0.5044,0.125 -0.5044,-1.25 z m -1659.00001,-3 c 0,-1.375 0.22698,-1.9375 0.50439,-1.25 0.27741,0.6875 0.27741,1.8125 0,2.5 -0.27741,0.6875 -0.50439,0.125 -0.50439,-1.25 z m 1660.22751,-35 c 0,-6.875 0.1597,-9.6875 0.355,-6.25 0.1953,3.4375 0.1953,9.0625 0,12.5 -0.1953,3.4375 -0.355,0.625 -0.355,-6.25 z M 318.232,1198 c 0,-1.925 0.2058,-2.7125 0.45733,-1.75 0.25152,0.9625 0.25152,2.5375 0,3.5 -0.25153,0.9625 -0.45733,0.175 -0.45733,-1.75 z m 1383,-8 c 0,-1.925 0.2058,-2.7125 0.4573,-1.75 0.2516,0.9625 0.2516,2.5375 0,3.5 -0.2515,0.9625 -0.4573,0.175 -0.4573,-1.75 z m -1521.15305,-8.5833 c 0.048,-1.165 0.28494,-1.4019 0.60416,-0.6042 0.28887,0.7219 0.25335,1.5844 -0.0789,1.9167 -0.3323,0.3323 -0.56864,-0.2584 -0.52522,-1.3125 z m 1658.99995,-2 c 0.048,-1.165 0.285,-1.4019 0.6042,-0.6042 0.2889,0.7219 0.2534,1.5844 -0.079,1.9167 -0.3323,0.3323 -0.5687,-0.2584 -0.5253,-1.3125 z m -1519.99995,-4 c 0.048,-1.165 0.28494,-1.4019 0.60416,-0.6042 0.28887,0.7219 0.25335,1.5844 -0.0789,1.9167 -0.33229,0.3323 -0.56864,-0.2584 -0.52522,-1.3125 z M 1700.1579,1171 c 0,-1.375 0.227,-1.9375 0.5044,-1.25 0.2774,0.6875 0.2774,1.8125 0,2.5 -0.2774,0.6875 -0.5044,0.125 -0.5044,-1.25 z M 320.07895,1160.4167 c 0.048,-1.165 0.28494,-1.4019 0.60416,-0.6042 0.28887,0.7219 0.25335,1.5844 -0.0789,1.9167 -0.33229,0.3323 -0.56864,-0.2584 -0.52522,-1.3125 z m -138,-8 c 0.048,-1.165 0.28494,-1.4019 0.60416,-0.6042 0.28887,0.7219 0.25335,1.5844 -0.0789,1.9167 -0.3323,0.3323 -0.56864,-0.2584 -0.52522,-1.3125 z M 306.40499,1054.75 304.5,1052.5 l 2.25,1.905 c 1.2375,1.0477 2.25,2.0602 2.25,2.25 0,0.8002 -0.80479,0.2094 -2.59501,-1.905 z M 1716,1053.5 c 1.2917,-1.375 2.5736,-2.5 2.8486,-2.5 0.275,0 -0.5569,1.125 -1.8486,2.5 -1.2917,1.375 -2.5736,2.5 -2.8486,2.5 -0.275,0 0.5569,-1.125 1.8486,-2.5 z m -1089.75,-6.2163 c 1.5125,-0.2291 3.9875,-0.2291 5.5,0 1.5125,0.2292 0.275,0.4166 -2.75,0.4166 -3.025,0 -4.2625,-0.1874 -2.75,-0.4166 z m 747.019,-0.9767 c 0.973,-0.2535 2.323,-0.2369 3,0.037 0.6771,0.2739 -0.119,0.4813 -1.769,0.461 -1.65,-0.02 -2.2039,-0.2445 -1.231,-0.4981 z m 26.5435,0.01 c 0.7219,-0.2889 1.5844,-0.2534 1.9167,0.079 0.3323,0.3323 -0.2584,0.5687 -1.3125,0.5253 -1.165,-0.048 -1.4019,-0.285 -0.6042,-0.6042 z m 15,-1 c 0.7219,-0.2889 1.5844,-0.2534 1.9167,0.079 0.3323,0.3323 -0.2584,0.5687 -1.3125,0.5253 -1.165,-0.048 -1.4019,-0.285 -0.6042,-0.6042 z M 1188.8724,972.25 c -1.2438,-1.58606 -1.2085,-1.62143 0.3776,-0.37756 0.9625,0.75485 1.75,1.54235 1.75,1.75 0,0.82304 -0.8212,0.29331 -2.1276,-1.37244 z m -757.99996,-4 c -1.24387,-1.58606 -1.2085,-1.62143 0.37756,-0.37756 0.9625,0.75485 1.75,1.54235 1.75,1.75 0,0.82304 -0.82119,0.29331 -2.12756,-1.37244 z M 841,961.5 c 3.54322,-3.575 6.66722,-6.5 6.94222,-6.5 0.275,0 -2.399,2.925 -5.94222,6.5 -3.54322,3.575 -6.66722,6.5 -6.94222,6.5 -0.275,0 2.399,-2.925 5.94222,-6.5 z m 752,3.12244 c 0,-0.20765 0.7875,-0.99515 1.75,-1.75 1.5861,-1.24387 1.6214,-1.2085 0.3776,0.37756 -1.3064,1.66575 -2.1276,2.19548 -2.1276,1.37244 z M 1173.9462,958.25 1170.5,954.5 l 3.75,3.44617 c 2.0625,1.89539 3.75,3.58289 3.75,3.75 0,0.76362 -0.8462,0.0442 -4.0538,-3.44617 z M 1610.5,947 c 0.9955,-1.1 2.035,-2 2.31,-2 0.275,0 -0.3145,0.9 -1.31,2 -0.9955,1.1 -2.035,2 -2.31,2 -0.275,0 0.3145,-0.9 1.31,-2 z M 405.87244,943.25 c -1.24387,-1.58606 -1.2085,-1.62143 0.37756,-0.37756 0.9625,0.75485 1.75,1.54235 1.75,1.75 0,0.82304 -0.82119,0.29331 -2.12756,-1.37244 z m 502.20651,-77.83333 c 0.048,-1.16495 0.28494,-1.4019 0.60416,-0.60417 0.28887,0.72187 0.25335,1.58438 -0.0789,1.91667 -0.33229,0.33229 -0.56864,-0.25834 -0.52522,-1.3125 z M 1298.4624,843.75 1293.5,838.5 l 5.25,4.96241 c 2.8875,2.72932 5.25,5.09182 5.25,5.25 0,0.74619 -0.9264,-0.084 -5.5376,-4.96241 z m -749.58996,1.5 c -1.24387,-1.58606 -1.2085,-1.62143 0.37756,-0.37756 0.9625,0.75485 1.75,1.54235 1.75,1.75 0,0.82304 -0.82119,0.29331 -2.12756,-1.37244 z M 1471.5,842 c 2.1482,-2.2 4.1309,-4 4.4059,-4 0.275,0 -1.2577,1.8 -3.4059,4 -2.1482,2.2 -4.1309,4 -4.4059,4 -0.275,0 1.2577,-1.8 3.4059,-4 z m -209.4211,-77.58333 c 0.048,-1.16495 0.285,-1.4019 0.6042,-0.60417 0.2889,0.72187 0.2534,1.58438 -0.079,1.91667 -0.3323,0.33229 -0.5687,-0.25834 -0.5253,-1.3125 z m 245,-2 c 0.048,-1.16495 0.285,-1.4019 0.6042,-0.60417 0.2889,0.72187 0.2534,1.58438 -0.079,1.91667 -0.3323,0.33229 -0.5687,-0.25834 -0.5253,-1.3125 z M 511.25218,759.5 c 0.0111,-2.2 0.21589,-2.98225 0.45508,-1.73834 0.23919,1.24391 0.23011,3.04391 -0.0202,4 -0.25029,0.95609 -0.446,-0.0617 -0.4349,-2.26166 z m 1178.82672,-3.08333 c 0.048,-1.16495 0.285,-1.4019 0.6042,-0.60417 0.2889,0.72187 0.2534,1.58438 -0.079,1.91667 -0.3323,0.33229 -0.5687,-0.25834 -0.5253,-1.3125 z M 329.19495,749.5 c 0.0204,-1.65 0.2445,-2.20394 0.49804,-1.23097 0.25354,0.97297 0.23687,2.32297 -0.0371,3 -0.27393,0.67703 -0.48137,-0.11903 -0.46099,-1.76903 z m 568.67749,-8.25 c -1.24387,-1.58606 -1.2085,-1.62143 0.37756,-0.37756 1.66575,1.30637 2.19548,2.12756 1.37244,2.12756 -0.20765,0 -0.99515,-0.7875 -1.75,-1.75 z M 1121,739.62244 c 0,-0.20765 0.7875,-0.99515 1.75,-1.75 1.5861,-1.24387 1.6214,-1.2085 0.3776,0.37756 -1.3064,1.66575 -2.1276,2.19548 -2.1276,1.37244 z M 329.25218,728.5 c 0.0111,-2.2 0.21589,-2.98225 0.45508,-1.73834 0.23919,1.24391 0.23011,3.04391 -0.0202,4 -0.25029,0.95609 -0.446,-0.0617 -0.4349,-2.26166 z m 558.15281,1.25 -1.90499,-2.25 2.25,1.90499 c 2.11444,1.79022 2.70524,2.59501 1.90499,2.59501 -0.18976,0 -1.20226,-1.0125 -2.25,-2.25 z M 1690.1579,726 c 0,-1.375 0.227,-1.9375 0.5044,-1.25 0.2774,0.6875 0.2774,1.8125 0,2.5 -0.2774,0.6875 -0.5044,0.125 -0.5044,-1.25 z M 1140.5,719 c 3.8205,-3.85 7.1714,-7 7.4464,-7 0.275,0 -2.6259,3.15 -6.4464,7 -3.8205,3.85 -7.1714,7 -7.4464,7 -0.275,0 2.6259,-3.15 6.4464,-7 z m -810.42105,-7.58333 c 0.048,-1.16495 0.28494,-1.4019 0.60416,-0.60417 0.28887,0.72187 0.25335,1.58438 -0.0789,1.91667 -0.33229,0.33229 -0.56864,-0.25834 -0.52522,-1.3125 z M 855.87244,698.25 c -1.24387,-1.58606 -1.2085,-1.62143 0.37756,-0.37756 0.9625,0.75485 1.75,1.54235 1.75,1.75 0,0.82304 -0.82119,0.29331 -2.12756,-1.37244 z M 1163,697.62244 c 0,-0.20765 0.7875,-0.99515 1.75,-1.75 1.5861,-1.24387 1.6214,-1.2085 0.3776,0.37756 -1.3064,1.66575 -2.1276,2.19548 -2.1276,1.37244 z M 845.87244,689.25 c -1.24387,-1.58606 -1.2085,-1.62143 0.37756,-0.37756 1.66575,1.30637 2.19548,2.12756 1.37244,2.12756 -0.20765,0 -0.99515,-0.7875 -1.75,-1.75 z M 1180,682.62244 c 0,-0.20765 0.7875,-0.99515 1.75,-1.75 1.5861,-1.24387 1.6214,-1.2085 0.3776,0.37756 -1.3064,1.66575 -2.1276,2.19548 -2.1276,1.37244 z M 1297.5,670 c 0.9955,-1.1 2.035,-2 2.31,-2 0.275,0 -0.3145,0.9 -1.31,2 -0.9955,1.1 -2.035,2 -2.31,2 -0.275,0 0.3145,-0.9 1.31,-2 z m -186,-27 c 0.9955,-1.1 2.035,-2 2.31,-2 0.275,0 -0.3145,0.9 -1.31,2 -0.9955,1.1 -2.035,2 -2.31,2 -0.275,0 0.3145,-0.9 1.31,-2 z M 898.92431,634.25 896.5,631.5 l 2.75,2.42431 c 2.57029,2.26589 3.20859,3.07569 2.42431,3.07569 -0.17912,0 -1.41662,-1.2375 -2.75,-2.75 z m -255.11181,0.0669 c 0.72187,-0.28887 1.58438,-0.25335 1.91667,0.0789 0.33229,0.33229 -0.25834,0.56864 -1.3125,0.52522 -1.16495,-0.048 -1.4019,-0.28494 -0.60417,-0.60416 z M 1124,629.5 c 1.2917,-1.375 2.5736,-2.5 2.8486,-2.5 0.275,0 -0.5569,1.125 -1.8486,2.5 -1.2917,1.375 -2.5736,2.5 -2.8486,2.5 -0.275,0 0.5569,-1.125 1.8486,-2.5 z m 19,-19 c 1.2917,-1.375 2.5736,-2.5 2.8486,-2.5 0.275,0 -0.5569,1.125 -1.8486,2.5 -1.2917,1.375 -2.5736,2.5 -2.8486,2.5 -0.275,0 0.5569,-1.125 1.8486,-2.5 z m 13,-11.87756 c 0,-0.20765 0.7875,-0.99515 1.75,-1.75 1.5861,-1.24387 1.6214,-1.2085 0.3776,0.37756 -1.3064,1.66575 -2.1276,2.19548 -2.1276,1.37244 z M 857.87244,594.25 c -1.24387,-1.58606 -1.2085,-1.62143 0.37756,-0.37756 1.66575,1.30637 2.19548,2.12756 1.37244,2.12756 -0.20765,0 -0.99515,-0.7875 -1.75,-1.75 z M 1108,546.62244 c 0,-0.20765 0.7875,-0.99515 1.75,-1.75 1.5861,-1.24387 1.6214,-1.2085 0.3776,0.37756 -1.3064,1.66575 -2.1276,2.19548 -2.1276,1.37244 z M 1120,533.5 c 1.2917,-1.375 2.5736,-2.5 2.8486,-2.5 0.275,0 -0.5569,1.125 -1.8486,2.5 -1.2917,1.375 -2.5736,2.5 -2.8486,2.5 -0.275,0 0.5569,-1.125 1.8486,-2.5 z M 896.40499,529.75 894.5,527.5 l 2.25,1.90499 c 2.11444,1.79022 2.70524,2.59501 1.90499,2.59501 -0.18976,0 -1.20226,-1.0125 -2.25,-2.25 z M 414,521.62244 c 0,-0.20765 0.7875,-0.99515 1.75,-1.75 1.58606,-1.24387 1.62143,-1.2085 0.37756,0.37756 C 414.82119,521.91575 414,522.44548 414,521.62244 Z m 1187.405,-4.87244 -1.905,-2.25 2.25,1.90499 c 2.1144,1.79022 2.7052,2.59501 1.905,2.59501 -0.1898,0 -1.2023,-1.0125 -2.25,-2.25 z M 426,508.5 c 1.86578,-1.925 3.61733,-3.5 3.89233,-3.5 0.275,0 -1.02655,1.575 -2.89233,3.5 -1.86578,1.925 -3.61733,3.5 -3.89233,3.5 -0.275,0 1.02655,-1.575 2.89233,-3.5 z m 8.5,-8.5 c 2.14824,-2.2 4.1309,-4 4.4059,-4 0.275,0 -1.25766,1.8 -3.4059,4 -2.14824,2.2 -4.1309,4 -4.4059,4 -0.275,0 1.25766,-1.8 3.4059,-4 z m 722.5,-3.5 c 1.2917,-1.375 2.5736,-2.5 2.8486,-2.5 0.275,0 -0.5569,1.125 -1.8486,2.5 -1.2917,1.375 -2.5736,2.5 -2.8486,2.5 -0.275,0 0.5569,-1.125 1.8486,-2.5 z m 424.8724,0.75 c -1.2438,-1.58606 -1.2085,-1.62143 0.3776,-0.37756 1.6657,1.30637 2.1955,2.12756 1.3724,2.12756 -0.2076,0 -0.9951,-0.7875 -1.75,-1.75 z m -723.46741,-5.5 -1.90499,-2.25 2.25,1.90499 c 1.2375,1.04774 2.25,2.06024 2.25,2.25 0,0.80025 -0.80479,0.20945 -2.59501,-1.90499 z M 359.87244,313.25 c -1.24387,-1.58606 -1.2085,-1.62143 0.37756,-0.37756 1.66575,1.30637 2.19548,2.12756 1.37244,2.12756 -0.20765,0 -0.99515,-0.7875 -1.75,-1.75 z M 1656,312.62244 c 0,-0.20765 0.7875,-0.99515 1.75,-1.75 1.5861,-1.24387 1.6214,-1.2085 0.3776,0.37756 -1.3064,1.66575 -2.1276,2.19548 -2.1276,1.37244 z M 341.4687,295.75 335.5,289.5 l 6.25,5.9687 c 3.4375,3.28278 6.25,6.09528 6.25,6.25 0,0.7389 -0.98689,-0.16298 -6.5313,-5.9687 z M 1672.5,297 c 2.1482,-2.2 4.1309,-4 4.4059,-4 0.275,0 -1.2577,1.8 -3.4059,4 -2.1482,2.2 -4.1309,4 -4.4059,4 -0.275,0 1.2577,-1.8 3.4059,-4 z m 10,-10 c 2.1482,-2.2 4.1309,-4 4.4059,-4 0.275,0 -1.2577,1.8 -3.4059,4 -2.1482,2.2 -4.1309,4 -4.4059,4 -0.275,0 1.2577,-1.8 3.4059,-4 z M 330.92431,285.25 328.5,282.5 l 2.75,2.42431 c 2.57029,2.26589 3.20859,3.07569 2.42431,3.07569 -0.17912,0 -1.41662,-1.2375 -2.75,-2.75 z M 1694,274.62244 c 0,-0.20765 0.7875,-0.99515 1.75,-1.75 1.5861,-1.24387 1.6214,-1.2085 0.3776,0.37756 -1.3064,1.66575 -2.1276,2.19548 -2.1276,1.37244 z M 317.87244,271.25 c -1.24387,-1.58606 -1.2085,-1.62143 0.37756,-0.37756 1.66575,1.30637 2.19548,2.12756 1.37244,2.12756 -0.20765,0 -0.99515,-0.7875 -1.75,-1.75 z M 1668,183.62244 c 0,-0.20765 0.7875,-0.99515 1.75,-1.75 1.5861,-1.24387 1.6214,-1.2085 0.3776,0.37756 -1.3064,1.66575 -2.1276,2.19548 -2.1276,1.37244 z M 1679,173.5 c 1.2917,-1.375 2.5736,-2.5 2.8486,-2.5 0.275,0 -0.5569,1.125 -1.8486,2.5 -1.2917,1.375 -2.5736,2.5 -2.8486,2.5 -0.275,0 0.5569,-1.125 1.8486,-2.5 z M 333.92431,169.25 331.5,166.5 l 2.75,2.42431 c 1.5125,1.33338 2.75,2.57088 2.75,2.75 0,0.78428 -0.8098,0.14598 -3.07569,-2.42431 z m -26,-26 -2.42431,-2.75 2.75,2.42431 c 2.57029,2.26589 3.20859,3.07569 2.42431,3.07569 -0.17912,0 -1.41662,-1.2375 -2.75,-2.75 z M 1714.5,138 c 0.9955,-1.1 2.035,-2 2.31,-2 0.275,0 -0.3145,0.9 -1.31,2 -0.9955,1.1 -2.035,2 -2.31,2 -0.275,0 0.3145,-0.9 1.31,-2 z M 295.87244,130.25 c -1.24387,-1.58606 -1.2085,-1.62143 0.37756,-0.37756 1.66575,1.30637 2.19548,2.12756 1.37244,2.12756 -0.20765,0 -0.99515,-0.7875 -1.75,-1.75 z M 1724,127.62244 c 0,-0.20765 0.7875,-0.99515 1.75,-1.75 1.5861,-1.24387 1.6214,-1.2085 0.3776,0.37756 -1.3064,1.66575 -2.1276,2.19548 -2.1276,1.37244 z M 209.07895,30.416667 c 0.048,-1.164943 0.28494,-1.4019 0.60416,-0.604167 0.28887,0.721875 0.25335,1.584375 -0.0789,1.916667 -0.3323,0.332291 -0.56864,-0.258334 -0.52522,-1.3125 z M 208.25218,9.5 c 0.0111,-2.2 0.21589,-2.9822534 0.45508,-1.7383408 0.23919,1.2439125 0.23011,3.0439128 -0.0202,3.9999998 C 208.43679,12.717747 208.24108,11.7 208.25218,9.5 Z m 1599.82672,1.916667 c 0.048,-1.164943 0.285,-1.4019 0.6042,-0.604167 0.2889,0.721875 0.2534,1.584375 -0.079,1.916667 -0.3323,0.332291 -0.5687,-0.258334 -0.5253,-1.3125 z"
         id="path3" />
      <path
         style="fill-opacity:1;fill:#3a7bd5"
         d="m 1101,1996.5861 c 0,-0.2277 3.0375,-2.0974 6.75,-4.1549 12.2269,-6.7762 41.4008,-25.641 57.7146,-37.32 125.2982,-89.7012 222.9863,-212.8867 266.4266,-335.9661 19.5894,-55.5026 31.0681,-106.4248 36.7755,-163.1451 2.2309,-22.1699 2.5284,-85.9179 0.504,-108 -4.3133,-47.0522 -13.3236,-94.1619 -26.7108,-139.6563 -2.4529,-8.3359 -4.4599,-15.3595 -4.4599,-15.608 0,-0.2484 4.1625,-0.9934 9.25,-1.6554 17.4318,-2.2686 37.2568,-5.9908 51.25,-9.6223 7.7,-1.9984 14.9734,-3.8639 16.1632,-4.1457 1.9799,-0.4689 2.4626,0.4498 5.695,10.8377 15.1699,48.7522 24.0856,92.4924 29.3213,143.85 2.5472,24.9859 2.5467,92.0228 -9e-4,117 -8.2078,80.4723 -28.1263,149.3582 -63.1797,218.5 -32.6074,64.3171 -76.0989,123.0301 -129.431,174.7302 -69.6969,67.5642 -147.8505,116.3282 -239.4409,149.3995 -14.3137,5.1684 -16.627,5.8579 -16.627,4.9564 z m -203.5,-8.4385 c -49.4933,-18.7208 -95.08973,-42.0867 -137.39412,-70.4076 -39.54471,-26.4735 -70.09701,-51.6657 -105.15177,-86.7041 -37.43086,-37.4135 -65.74158,-72.5505 -94.70136,-117.5359 -57.94081,-90.0038 -90.23652,-195.8087 -93.09767,-305 -1.91573,-73.1105 6.41573,-138.3143 26.31855,-205.9745 7.17064,-24.3768 7.85778,-26.0488 10.63606,-25.8817 1.31467,0.079 10.49031,2.1726 20.39031,4.6522 18.30788,4.5855 36.57492,8.0578 48.75,9.2667 4.7901,0.4757 6.75,1.0757 6.75,2.0664 0,0.7679 -2.05537,8.253 -4.56748,16.6335 -11.8415,39.5039 -20.56125,84.7999 -24.97525,129.7374 -3.49982,35.6305 -3.00954,91.9799 1.13109,130 9.67175,88.8081 38.58091,175.9986 82.72497,249.5 58.20318,96.9103 141.31457,182.5515 243.69807,251.116 10.71873,7.1781 23.8761,15.6565 29.2386,18.8408 14.64552,8.6966 14.00552,8.6763 -9.75,-0.3092 z m 420.521,-62.4571 c 0.2635,-0.2387 7.004,-4.85 14.979,-10.2473 92.0711,-62.311 165.3557,-132.4415 223.7266,-214.0975 77.0723,-107.8179 123.9229,-232.8396 140.282,-374.3457 4.3726,-37.8225 6.3389,-108.7728 4.0895,-147.5614 -1.2998,-22.4144 -4.9269,-56.5721 -8.6863,-81.8027 l -2.5128,-16.8641 15.8149,-16.1359 c 17.2176,-17.5671 27.2211,-29.156 39.8244,-46.1359 12.6595,-17.0557 25.7653,-38.13765 34.3468,-55.25 2.2755,-4.5375 4.5365,-8.25 5.0244,-8.25 1.723,0 14.4442,32.13648 22.9593,58 14.524,44.1148 23.8267,87.8916 29.3365,138.0523 1.9837,18.0595 2.2484,25.6451 2.2657,64.9477 0.021,47.7715 -0.7618,60.2767 -6.0728,97 -14.6009,100.9586 -52.9697,201.3348 -109.8972,287.5 -19.8099,29.9843 -41.29,58.006 -67.0732,87.5 -15.8117,18.0874 -56.2638,58.3782 -75.4278,75.127 -62.2109,54.3707 -129.3114,99.0981 -204.5,136.314 -23.8197,11.79 -60.8793,28.425 -58.479,26.2495 z M 691,1919.1495 C 623.00567,1890.8646 547.7279,1847.4334 489,1802.6066 314.16615,1669.1563 206.04734,1488.2675 184.08293,1292.4633 c -3.02333,-26.9518 -4.08459,-47.0283 -4.06746,-76.9462 0.0477,-83.2741 12.92076,-155.0041 40.47257,-225.5171 7.23366,-18.51303 14.55817,-35 15.54911,-35 0.45252,0 2.72059,3.4875 5.04017,7.75 20.80915,38.2393 45.70523,71.855 76.20857,102.8999 l 12.92054,13.15 -3.09534,21.85 c -6.87167,48.5073 -8.55384,73.2039 -8.53801,125.3501 0.0166,54.8074 2.814,90.0474 10.97987,138.3196 24.58704,145.3454 78.25801,269.1411 162.00721,373.6804 52.72371,65.812 109.01896,116.4519 189.93984,170.8588 19.25355,12.9451 22.42693,15.1802 21.45,15.1079 -0.2475,-0.018 -5.625,-2.1861 -11.95,-4.8172 z m 414.5916,-74.0013 c -0.3432,-0.5554 5.5815,-7.2284 13.1661,-14.829 15.0695,-15.1013 21.6415,-23.9043 29.0857,-38.9597 8.0739,-16.3289 12.4189,-31.3671 14.5505,-50.3595 l 1.1785,-10.5 2.9638,0.3507 c 4.9294,0.5833 11.3631,3.0128 23.9638,9.049 17.2078,8.2432 21.5109,13.213 21.4892,24.8182 -0.02,10.4872 -5.0501,22.0576 -15.6419,35.9772 -13.5442,17.7995 -32.381,30.7651 -55.3473,38.0962 -15.0719,4.8111 -34.2372,8.2519 -35.4084,6.3569 z m -205.4081,-2.2664 c -15.00215,-2.4958 -32.49923,-8.9927 -46.44269,-17.245 -28.94757,-17.1323 -44.69905,-40.6037 -45.00218,-67.0581 -0.0898,-7.8384 -0.0549,-7.9513 3.3296,-10.7768 7.92671,-6.6175 31.16114,-15.8019 39.97524,-15.8019 2.62682,0 2.74831,0.2397 3.42121,6.75 1.96692,19.03 7.41703,38.6435 14.83229,53.3776 7.32004,14.5449 13.50502,22.7755 27.82789,37.0317 7.54772,7.5127 13.45734,13.9252 13.13247,14.25 -0.75769,0.7577 -4.38731,0.5848 -11.07383,-0.5275 z m 102.4317,-58.4623 c -6.83553,-2.1811 -14.69442,-10.1708 -17.16555,-17.4515 -3.61933,-10.6636 -2.00229,-22.9076 8.51424,-64.468 6.24391,-24.6754 11.95871,-44.0336 13.65151,-46.2427 1.9184,-2.5036 2.3571,-1.5934 8.7622,18.1816 17.5374,54.1441 22.9932,85.2082 17.0006,96.7966 -5.9957,11.5944 -18.6918,17.0355 -30.763,13.184 z M 1225,1695.3966 c 0,-0.3318 3.9375,-4.769 8.75,-9.8603 15.3489,-16.2381 27.4144,-35.1215 35.1654,-55.0363 5.4536,-14.012 7.5955,-22.3367 11.0635,-43 4.0236,-23.9731 3.9064,-23.5027 5.8506,-23.4834 0.9188,0.01 11.5705,5.1354 23.6705,11.3917 l 22,11.3751 -0.035,12.8583 c -0.041,15.1446 -1.9574,22.8109 -9.0594,36.2482 -12.1371,22.9642 -34.9689,40.8706 -66.9055,52.4723 -15.3635,5.5811 -30.5,9.0721 -30.5,7.0344 z m -441.13673,-1.9557 c -9.98532,-1.9152 -24.08241,-7.0024 -36.25297,-13.0823 -29.74113,-14.8576 -48.59643,-33.5929 -56.21618,-55.8586 -2.28087,-6.6649 -2.81116,-10.1874 -3.17759,-21.1071 -0.29489,-8.7876 -0.0597,-13.8174 0.71367,-15.2625 2.42089,-4.5235 46.61357,-23.9356 47.5011,-20.8654 0.19635,0.6793 0.86152,7.535 1.47815,15.235 0.61663,7.7 1.82042,17.375 2.67508,21.5 6.58302,31.7727 22.65248,60.849 46.3035,83.7822 3.12786,3.0329 5.05673,5.6334 4.52976,6.107 -0.50479,0.4536 -3.90432,0.2519 -7.55452,-0.4483 z m 156.66374,-20.0642 c -9.79327,-1.7616 -26.61706,-6.7027 -36.01316,-10.5768 -33.86789,-13.9644 -56.79271,-39.1491 -62.96331,-69.1703 -2.24283,-10.9118 -2.53505,-26.063 -0.54124,-28.0629 0.83011,-0.8326 11.40511,-5.6177 23.5,-10.6334 12.09488,-5.0158 22.46894,-9.5128 23.05347,-9.9935 0.73441,-0.6039 1.42816,3.982 2.24544,14.8431 0.65047,8.6444 1.85492,18.8439 2.67655,22.6656 6.69911,31.1601 23.84899,59.8369 48.78253,81.5706 12.3984,10.8072 12.32712,11.7082 -0.74028,9.3576 z m 127.81629,0.3697 c -0.3173,-0.5134 3.2917,-4.5198 8.02,-8.9031 19.8678,-18.418 35.3472,-42.601 43.4262,-67.8433 4.271,-13.3445 6.2267,-24.4605 6.9212,-39.3409 0.4349,-9.3164 0.9641,-12.9808 1.9283,-13.3508 1.312,-0.5035 43.6251,17.355 48.2463,20.3626 2.338,1.5218 2.3714,1.7527 1.6879,11.6772 -1.8081,26.252 -8.6266,43.4029 -23.4046,58.8709 -12.1609,12.7286 -30.9381,24.0777 -52.1757,31.5353 -14.9724,5.2576 -33.4208,8.9804 -34.6496,6.9921 z M 775.55484,1519.3862 C 757.60257,1516.1454 737.1801,1507.5946 720,1496.1256 c -27.82902,-18.5779 -39.46342,-36.3492 -40.64505,-62.0843 -0.2662,-5.7977 -0.115,-12.5078 0.33599,-14.9112 l 0.82,-4.3699 23.99453,-10.3786 c 13.19699,-5.7082 24.26333,-10.3792 24.59186,-10.3801 0.32854,-8e-4 0.86837,5.286 1.19964,11.7485 1.11579,21.7675 6.52233,43.0783 15.66592,61.75 7.04403,14.3843 13.25484,23.2221 26.95074,38.3504 6.6475,7.3426 12.08637,13.7551 12.08637,14.25 0,1.0551 0.61204,1.1014 -9.44516,-0.7142 z M 1242.5807,1509.25 c 28.097,-31.0409 43.6117,-65.8207 46.0657,-103.2669 0.3672,-5.6037 1.1673,-10.4135 1.8226,-10.9574 0.7978,-0.6621 8.4266,2.3016 24.0605,9.3468 22.184,9.9971 22.9202,10.4217 23.7941,13.7219 1.2285,4.6396 0.1693,22.06 -1.788,29.4056 -8.94,33.5509 -44.0942,61.4957 -89.8248,71.4036 -16.416,3.5567 -16.3106,3.8031 -4.1301,-9.6536 z m -239.2481,-21.155 c -6.51695,-1.6637 -13.73555,-6.6512 -16.8326,-11.6298 -2.91146,-4.6804 -2.9985,-5.179 -2.94928,-16.894 0.0461,-10.9749 0.5313,-14.1147 5.34223,-34.5712 4.98019,-21.1762 13.67525,-52.753 17.89055,-64.9706 l 1.8874,-5.4707 2.7234,7.9707 c 11.0872,32.4495 18.6372,60.1659 23.0628,84.665 2.8384,15.713 2.7488,19.1169 -0.6989,26.5439 -4.7919,10.3227 -19.3391,17.187 -30.4256,14.3567 z m -97.62513,-100.139 c -27.34643,-5.8939 -57.04075,-21.2895 -74.30217,-38.5234 -7.16398,-7.1525 -13.52545,-16.2155 -17.43652,-24.8412 -4.80942,-10.6069 -7.38937,-27.76 -5.08021,-33.7763 1.20732,-3.1456 47.83742,-25.8765 49.05187,-23.9115 0.43463,0.7033 1.56954,7.1758 2.52201,14.3834 2.46832,18.6784 7.79896,36.4148 15.53566,51.6912 7.15107,14.12 23.52952,35.434 38.41241,49.9876 3.07421,3.0063 5.58948,5.8188 5.58948,6.25 0,1.2209 -4.70802,0.8059 -14.29253,-1.2598 z m 191.83493,0.1126 c -0.3166,-0.5122 3.9872,-5.3497 9.564,-10.75 5.5768,-5.4002 12.7212,-12.9686 15.8763,-16.8186 18.6608,-22.7703 31.6658,-51.4817 37.4848,-82.7561 1.3579,-7.2981 2.719,-12.1478 3.3694,-12.0059 1.5114,0.3297 41.3466,21.2509 43.0173,22.5924 2.508,2.0139 2.959,5.2538 1.9812,14.2329 -2.6985,24.7803 -15.187,43.594 -39.8354,60.0112 -18.5807,12.3758 -37.8835,20.401 -58.76,24.4298 -11.9141,2.2992 -11.9334,2.3008 -12.6976,1.0643 z m -87.8726,-186.7939 c -2.7114,-4.3871 -57.6077,-156.7088 -76.32302,-211.7747 -12.97926,-38.18875 -21.24813,-77.99385 -24.09716,-116 -0.41229,-5.5 -1.13609,-10 -1.60844,-10 -0.47235,0 -2.99544,4.725 -5.60686,10.5 -9.52842,21.0715 -23.4837,43.82703 -38.63601,63 -10.79469,13.65907 -37.3588,39.44168 -51.56244,50.04551 -40.98819,30.59999 -83.94704,48.70399 -135.33587,57.03409 -18.63157,3.0201 -54.73503,3.7409 -74.5,1.4874 -58.90689,-6.7164 -112.11326,-29.3108 -158.99098,-67.51673 C 366.68478,915.84512 324.16192,819.74804 329.99264,722.64545 333.63905,661.91953 351.26808,609.98932 385.3765,559.5 c 13.4676,-19.93555 35.22952,-45.85402 49.84165,-59.36145 l 4.71815,-4.36145 6.28185,4.98325 c 18.45426,14.63934 40.61212,25.42439 68.08089,33.13748 5.8217,1.6347 24.67352,5.93994 41.89294,9.5672 17.21941,3.62726 34.68302,7.51336 38.80802,8.63579 63.35083,17.23792 121.85434,43.79733 177,80.35445 93.55927,62.02222 168.24967,145.08494 215.69087,239.86842 8.51713,17.0165 21.30913,45.09138 21.30913,46.7676 0,3.27841 2.261,-1.0727 7.4577,-14.35201 3.2768,-8.3731 10.3337,-24.02111 15.682,-34.77338 69.5326,-139.78791 205.2975,-256.22631 360.7521,-309.39806 18.7163,-6.40171 51.6427,-14.48088 92.1082,-22.60061 35.6263,-7.1487 42.4377,-9.14442 58.1365,-17.03384 9.4902,-4.76929 16.692,-9.44988 28.6969,-18.6507 l 8.3335,-6.38689 4.3288,3.54719 c 8.3798,6.86659 28.4522,29.46988 40.0121,45.05701 85.7038,115.56175 88.4404,268.55194 6.7556,377.67159 -23.2897,31.11179 -49.5542,55.2215 -85.3129,78.31361 -78.2898,50.5578 -177.9822,60.218 -266.4505,25.8191 -27.1236,-10.5464 -60.6841,-29.72942 -81.0468,-46.32602 -12.1359,-9.89136 -29.8024,-27.35368 -38.9281,-38.47828 -16.4508,-20.05423 -25.0647,-33.3662 -38.1778,-59 -5.0644,-9.9 -9.4175,-17.325 -9.6736,-16.5 -0.2561,0.825 -0.9932,7.125 -1.638,14 -2.5146,26.81068 -9.5176,59.50281 -20.4573,95.5 -16.7496,55.1152 -78.1553,228.6116 -79.9086,225.7747 z M 650.56567,877.92758 c 17.0361,-2.3695 36.25648,-9.68663 51.17503,-19.48214 11.79704,-7.74593 29.03191,-25.27697 36.1101,-36.73063 14.58186,-23.5958 20.83058,-48.97568 18.33559,-74.47211 -3.17392,-32.43459 -15.1878,-57.64877 -37.91737,-79.57922 -46.3099,-44.68175 -121.53271,-44.76508 -168.11883,-0.18624 -10.20775,9.76792 -16.43146,17.52254 -22.49055,28.02276 -16.24864,28.15839 -20.41168,59.56834 -12.19055,91.97701 11.65617,45.94997 50.03777,81.38501 97.45264,89.9712 9.31692,1.68716 27.31261,1.91633 37.64394,0.47937 z M 1403,877.5455 c 31.1128,-4.72492 61.179,-22.981 80.7737,-49.0455 7.2457,-9.63809 16.663,-28.96707 19.6781,-40.38925 5.1578,-19.53963 5.363,-39.87938 0.6022,-59.68829 -10.6872,-44.46698 -44.465,-79.00984 -88.5846,-90.59091 -11.2633,-2.95652 -13.0313,-3.14312 -29.9694,-3.16302 -19.2878,-0.0226 -25.5356,0.89952 -40.358,5.95677 -54.4869,18.59033 -89.2006,73.60855 -82.1122,130.14038 2.4909,19.8651 10.0408,39.82074 21.1553,55.91684 18.2222,26.38944 50.5074,46.71292 81.3401,51.20341 9.5159,1.38591 27.1628,1.2256 37.4748,-0.34043 z M 1003.1468,792.24304 C 997.58685,775.96724 990.59283,761.23437 979.50628,742.44437 916.89245,636.32341 833.40172,558.80504 719.5,501.03718 684.46074,483.26621 654.75165,470.3668 578.5,439.81629 528.01993,419.59125 514.88606,413.95237 494,403.53715 406.23421,359.7711 329.58598,294.80453 279.65763,221.86189 237.25507,159.91402 212.23944,89.789286 209.4804,25.138511 209.18376,18.18733 208.72538,10.1375 208.46179,7.25 208.19813,4.3617871 208.39784,2 208.90572,2 c 0.50775,0 3.49754,5.0328307 6.64398,11.184068 C 265.54365,110.92156 349.57495,197.26956 454,258.20831 c 25.62255,14.95241 62.82108,33.35641 132,65.3071 71.52854,33.03587 108.38039,51.59499 141.5,71.2614 C 812.95473,445.51982 884.46705,508.2739 938.57374,580 c 8.95802,11.87512 29.75289,42.81154 37.64214,56 6.6971,11.19555 21.96634,40.09402 27.34342,51.75 2.6007,5.6375 5.008,10.25 5.3496,10.25 0.3415,0 4.0516,-6.8781 8.2445,-15.28468 45.7561,-91.7381 111.8802,-169.48217 200.3466,-235.55337 53.6444,-40.0644 115.741,-76.04221 193.5,-112.11097 59.1585,-27.44084 112.1437,-53.45115 137,-67.25294 112.9578,-62.72129 201.5689,-150.92133 252.2181,-251.04804 5.9857,-11.8327694 8.7891,-15.98396374 8.7795,-13 -0.036,11.027024 -3.898,44.537831 -7.0334,61.024292 C 1778.8339,186.39763 1697.156,297.48094 1575,373.44934 c -42.4167,26.37879 -80.3204,43.98716 -196,91.05288 -44.7002,18.18682 -50.4102,20.68811 -72.6783,31.83671 -83.5868,41.84809 -155.6774,98.89606 -214.3979,169.66107 -28.8898,34.81541 -61.4905,87.98043 -78.1711,127.48072 -2.5503,6.03939 -5.0005,11.09876 -5.4449,11.24304 -0.4443,0.14428 -2.7667,-5.47204 -5.161,-12.48072 z"
         id="path2" />
    </g>
  </g>
</svg>
