<?xml version="1.0" encoding="UTF-8" standalone="no"?>
<!-- Created with Inkscape (http://www.inkscape.org/) -->

<svg
   version="1.1"
   id="svg1"
   width="2000"
   height="2000"
   viewBox="0 0 2000 2000"
   sodipodi:docname="Net design.svg"
   inkscape:version="1.3.2 (091e20e, 2023-11-25, custom)"
   xmlns:inkscape="http://www.inkscape.org/namespaces/inkscape"
   xmlns:sodipodi="http://sodipodi.sourceforge.net/DTD/sodipodi-0.dtd"
   xmlns="http://www.w3.org/2000/svg"
   xmlns:svg="http://www.w3.org/2000/svg">
  <defs
     id="defs1" />
  <sodipodi:namedview
     id="namedview1"
     pagecolor="#ffffff"
     bordercolor="#000000"
     borderopacity="0.25"
     inkscape:showpageshadow="2"
     inkscape:pageopacity="0.0"
     inkscape:pagecheckerboard="0"
     inkscape:deskcolor="#d1d1d1"
     inkscape:zoom="0.4105"
     inkscape:cx="1000"
     inkscape:cy="1000"
     inkscape:window-width="1920"
     inkscape:window-height="1017"
     inkscape:window-x="-8"
     inkscape:window-y="-8"
     inkscape:window-maximized="1"
     inkscape:current-layer="g1" />
  <g
     inkscape:groupmode="layer"
     inkscape:label="Image"
     id="g1">
    <path
       style="fill-opacity:1;fill:#3a7bd5"
       d="M 16.637261,1995.5352 C 6.030626,1991.754 0.32908331,1979.3395 4.5506813,1969.2179 c 5.6868217,-13.6346 22.5180767,-16.8737 33.6396207,-6.4738 1.80805,1.6907 3.283771,2.2922 4.5,1.8343 0.995334,-0.3748 99.364958,-43.0402 218.599168,-94.812 l 216.78947,-94.1305 -0.58861,-2.6799 c -1.1032,-5.0229 1.50356,-12.0025 6.25857,-16.7575 3.62875,-3.6288 4.30077,-4.8644 3.77811,-6.9469 -0.34966,-1.3932 -19.97986,-64.9072 -43.62266,-141.1423 -23.6428,-76.2351 -43.22366,-139.3968 -43.51302,-140.3593 -0.33035,-1.0989 -1.52424,-1.7521 -3.20872,-1.7556 -9.34663,-0.019 -18.14557,-6.8529 -19.99559,-15.529 -3.83682,-17.9938 15.56097,-31.9118 30.42122,-21.8274 1.91432,1.2991 3.68333,2.362 3.93113,2.362 0.5797,0 459.57442,-319.8872 461.13411,-321.3782 1.67449,-1.6007 -351.73953,-419.27006 -354.36701,-418.79558 -8.52601,1.53967 -14.40656,1.30374 -18.64502,-0.74806 -12.02553,-5.82146 -14.44914,-23.49548 -4.49512,-32.78043 5.66985,-5.28876 15.13033,-6.73224 22.33367,-3.40769 10.2469,4.72925 14.16184,16.05159 9.38758,27.14965 l -2.11242,4.91046 8.36242,9.89686 c 4.59933,5.44327 84.17087,99.48607 176.82563,208.984 l 168.46322,199.08719 3.9737,-6.0467 c 2.18554,-3.3257 54.671,-84.3915 116.63436,-180.14614 l 112.66071,-174.09938 -2.8654,-4.06507 c -7.3121,-10.3738 -3.2996,-24.10006 8.6702,-29.65924 4.6035,-2.13802 8.3494,-2.34875 13.9775,-0.78629 3.7706,1.04681 10.0427,6.28909 12.1628,10.16585 0.907,1.6585 5.9655,0.74182 73.4169,-13.30435 39.8436,-8.29707 181.5678,-37.79805 314.9428,-65.55773 133.375,-27.75968 243.2303,-50.69741 244.123,-50.97273 1.073,-0.33093 1.7967,-2.04181 2.1356,-5.04819 C 1779.1964,576.07806 1788.5144,568 1797.1739,568 l 3.7502,0 7.4907,-23.25 c 17.1358,-53.18678 160.7079,-502.412088 161.158,-504.25 0.3506,-1.431664 -0.3778,-2.568336 -2.5634,-4 -3.5954,-2.355179 -8.0118,-10.602211 -8.0038,-14.946344 0.018,-9.683579 6.6795,-18.319047 15.8247,-20.5129498 17.1791,-4.1211953 31.0984,14.7157658 21.9692,29.7307038 -2.396,3.940665 -7.2913,7.821279 -11.0495,8.75914 l -2.75,0.686266 0,446.233304 0,446.2333 3.9414,1.18088 c 5.204,1.55916 10.5465,7.83272 12.0667,14.16965 2.3396,9.75236 -3.005,19.66583 -12.4419,23.07828 l -3.5662,1.28955 0,492.19072 v 492.1907 l 2.75,0.6863 c 7.4634,1.8625 13.5987,10.4284 13.6492,19.0565 0.077,13.2364 -13.1615,23.2587 -25.7439,19.4889 -5.8477,-1.752 -12.2196,-8.3988 -13.7044,-14.2956 -1.0347,-4.1092 -1.5534,-4.7368 -4.3135,-5.2187 C 1950.2916,1975.5672 519.8673,1777 518.48911,1777 c -0.71449,0 -2.4603,1.9815 -3.87959,4.4033 -1.87422,3.1981 -4.00676,5.1141 -7.79136,7 -8.48057,4.2261 -16.72257,2.9752 -23.47867,-3.5634 l -3.1605,-3.0588 -218.59398,94.8595 c -217.712948,94.4771 -218.59174,94.8699 -218.040344,97.4714 1.039909,4.9063 -1.575735,11.9717 -6.110904,16.5069 -6.079943,6.0799 -12.965994,7.7078 -20.796501,4.9163 z m 1944.150439,-27.645 c 0.2099,-1.108 -168.2283,-134.393 -540.2504,-427.5 C 1123.2318,1306.1506 879.30931,1114.5 878.48728,1114.5 c -0.82202,0 -105.43314,72.45 -232.46916,161 -171.39113,119.4676 -230.81998,161.3869 -230.37527,162.5 0.32962,0.825 0.82635,3.6299 1.10384,6.2331 0.62937,5.9044 -3.12589,14.256 -7.76393,17.2669 -2.12597,1.3801 -2.96077,2.6199 -2.69339,4 0.21312,1.1 20.09487,65.4709 44.18166,143.0464 l 43.79417,141.0464 5.92004,1.1251 c 9.2016,1.7487 13.80221,6.05 17.0908,15.9789 l 1.22396,3.6954 717,99.7256 c 394.35,54.8491 718.7961,99.6484 720.9914,99.5539 2.7841,-0.1198 4.0836,-0.6586 4.2963,-1.7815 z m 2.2013,-9.1402 c -0.01,-0.1375 -186.4186,-272.6818 -414.25,-605.6539 L 1134.5,747.69212 l -9,0.005 -9,0.005 L 999.69622,928.10137 882.89243,1108.5 l 2.80379,2.2159 c 142.84158,112.8935 1076.04068,848.1507 1076.55378,848.2049 0.4125,0.044 0.745,-0.033 0.739,-0.1708 z M 1852.0576,1553 c -64.7671,-221.375 -118.081,-403.5125 -118.4754,-404.75 -0.5849,-1.8354 -1.449,-2.25 -4.6894,-2.25 -11.4934,0 -20.9991,-12.6602 -18.0953,-24.1004 l 1.0379,-4.0888 -33.1677,-21.8489 c -284.992,-187.73529 -538.2351,-353.74362 -538.4872,-352.99427 -0.1758,0.52225 79.5116,117.63068 177.083,260.24097 97.5714,142.6103 283.2897,414.0914 412.7074,603.2914 264.0502,386.024 239.1503,349.7149 239.5462,349.3076 0.1644,-0.1692 -52.6924,-181.4326 -117.4595,-402.8076 z M 1976,1462 c 0,-477.0822 -0.049,-490 -1.8605,-490 -1.0232,0 -3.5487,-1.14568 -5.6121,-2.54596 -2.0634,-1.40027 -4.066,-2.41277 -4.4502,-2.25 -0.3842,0.16278 -48.9516,34.01226 -107.9276,75.22116 -82.2835,57.4947 -107.0838,75.2915 -106.6043,76.5 2.9594,7.4587 0.8785,15.7883 -5.5148,22.0748 l -4.5765,4.5 117.9614,403.25 c 64.8788,221.7875 118.1016,403.25 118.273,403.25 0.1714,0 0.3116,-220.5 0.3116,-490 z m -257.8724,-351.6549 c 4.6665,-5.627 18.3835,-5.6738 24.5676,-0.084 l 2.1951,1.9843 36.3628,-25.3728 c 19.9996,-13.955 68.6132,-47.8728 108.0304,-75.3728 52.7441,-36.79779 71.5128,-50.39607 71.0815,-51.5 -0.3223,-0.825 -0.8134,-3.3562 -1.0914,-5.62489 l -0.5055,-4.12489 -7.6341,-2.06629 c -34.2445,-9.26887 -805.4178,-211.23267 -805.654,-210.994 -0.4668,0.47191 568.8551,374.67757 570.1476,374.74837 0.6201,0.034 1.7451,-0.683 2.5,-1.5932 z m 245.7569,-170.45607 3.3845,-4.07491 -31.3054,-63.15706 C 1918.7456,837.92068 1882.0097,764.1625 1854.3281,708.75 L 1803.998,608 l -5.749,-0.022 c -7.6788,-0.0293 -13.3798,-2.70753 -16.8157,-7.89954 -1.4845,-2.24317 -3.2819,-4.0785 -3.9942,-4.0785 -0.7123,0 -18.54,3.57441 -39.6171,7.94313 -50.4811,10.46339 -542.1327,112.82384 -569.822,118.63532 -11.825,2.48184 -21.6462,4.93074 -21.825,5.442 -0.1787,0.51125 -0.3123,1.24592 -0.2967,1.63259 0.023,0.57217 810.2904,213.90658 813.6217,214.21756 0.55,0.0513 2.523,-1.74036 4.3845,-3.98157 z m 11.7984,-451.97236 c 0.1152,-279.71603 -0.1673,-443.675471 -0.7623,-442.41667 -0.5199,1.1 -38.4728,119.36757 -84.3398,262.81683 l -83.3945,260.81682 4.3319,4.33189 c 8.2907,8.29069 8.6798,19.22914 1.0078,28.32795 l -2.777,3.29349 81.8344,163.97022 c 45.0089,90.18362 82.3029,163.81405 82.8755,163.62318 0.719,-0.23968 1.0977,-137.82938 1.224,-444.76371 z"
       id="path1" />
  </g>
</svg>
